<?xml version="1.0" encoding="utf-8"?>
<!-- Generator: Adobe Illustrator 27.3.1, SVG Export Plug-In . SVG Version: 6.00 Build 0)  -->
<svg version="1.1" id="Layer_1" xmlns="http://www.w3.org/2000/svg" xmlns:xlink="http://www.w3.org/1999/xlink" x="0px" y="0px"
	 viewBox="0 0 600 132" style="enable-background:new 0 0 600 132;" xml:space="preserve">
<style type="text/css">
	.st0{fill:#FFFFFF;}
</style>
<g>
	<path class="st0" d="M447.5,78.6c1.2-3.9,2.3-7.7,3.7-11.5c1.9-5.3,4-10.6,6.3-15.8c0.2-0.4,0.6-0.8,0.2-1.2c-0.3-0.3-0.8,0-1.1,0
		c-4.3,0.8-8.6,0.7-12.6-1.5c-1.7-0.9-3.1-2.2-4-4c-1.1-2.2-0.9-4.2,0.3-6.2c1.1-1.7,2.7-2.9,4.5-3.9c1.1-0.6,2.8-0.2,3.6,0.6
		c0.3,0.3,0.6,0.7,0.3,1.2c-0.3,0.5-0.7,0.4-1.2,0.3c-2.3-0.7-3.5-0.2-4,1.8c-0.7,2.3,0.2,3.9,2.3,4.6c2.4,0.7,4.7,0.3,7-0.1
		c2.9-0.6,5.7-1.3,8.6-2c0.8-0.2,1.3-0.6,1.7-1.3c2.5-5.4,4.7-11,6.8-16.6c0.5-1.4,0.7-1.6,2.1-1c3.5,1.4,6.4,3.6,8.3,6.9
		c1,1.8,1,3.7,0.3,5.7c-0.2,0.6-0.6,1.2-0.9,1.8c-0.1,0.2-0.4,0.5-0.1,0.8c0.2,0.2,0.4,0.1,0.7,0.1c4.2-0.5,8.3-1,12.5-1.2
		c6-0.3,12-0.4,18,0.2c2.4,0.2,4.8,0.6,7.2,1c1.7,0.3,3.2,0.9,4.6,1.8c0.8,0.6,1,0.4,1.3-0.4c1.7-4.3,3.5-8.7,5.3-12.9
		c1.7-3.8,3-7.7,4.3-11.7c0.2-0.6,0.3-1.2,0.4-1.9c0.1-0.8,0.5-1.1,1.2-0.8c3,1.1,5.8,2.8,8,5c2.2,2.1,2.6,4.7,1.4,7.5
		c-0.6,1.4-1.1,2.8-1.8,4.2c-5.7,11.5-11.1,23-16.2,34.8c-3.7,8.5-7.3,17.1-10.1,26.1c-0.9,2.9-1.7,5.7-1.9,8.7
		c-0.1,0.6-0.4,1.5,0.3,1.9c0.7,0.4,1.3-0.3,1.8-0.6c2.5-1.8,4.6-4,6.6-6.4c0.4-0.5,0.8-1,1.2-1.5c2.1-2,2.4-4.8,3.1-7.4
		c2.9-11.1,6.7-21.9,10.6-32.6c3.5-9.6,7.4-19,11.4-28.4c1.4-3.3,2.7-6.7,3.3-10.2c0.1-0.8,0.6-1,1.3-0.7c3.3,1.4,6.5,3.1,8.8,6
		c1.5,1.9,1.5,4,0.7,6.1c-1.1,3.2-2.8,6.2-4.2,9.2c-7.4,15.2-14.5,30.6-20.6,46.4c-1.9,5-3.7,10-4.8,15.3c-0.3,1.2-0.5,2.4-0.5,3.7
		c0,0.5-0.2,1.1,0.3,1.4c0.6,0.3,1.1-0.2,1.5-0.5c2-1.3,3.7-3,5.2-4.7c1.7-1.9,3.2-3.9,4.8-6c0.6-0.8,0.9-1.6,0.8-2.7
		c-0.7-5.3,0.4-10.4,2.4-15.3c2.7-6.7,6.8-12.3,13.2-15.9c4.8-2.7,9.8-3.4,14.9-1c4.2,1.9,6.5,6.3,5.7,10.9
		c-1.4,8.1-8.1,14.6-16.4,15.9c-3.2,0.5-6.4,0.6-9.5-0.5c-0.3-0.1-0.5-0.2-0.8-0.3c-1.5-0.7-1.6-0.7-1.9,0.9
		c-0.8,3.4-0.7,6.7,0.7,9.9c2.4,5.3,7.3,7.8,12.9,6.4c7-1.8,12.9-5.6,17.6-11.1c0.2-0.2,0.4-0.4,0.5-0.6c0.4-0.6,1-1,1.7-0.6
		c0.8,0.5,0.4,1.2,0.1,1.8c-2.3,3.9-5.1,7.4-8.7,10.2c-4.7,3.7-10,5.7-16,5.7c-6.5-0.1-11.1-3-14.1-8.6c-0.9-1.7-0.9-1.7-2.1-0.1
		c-3.1,4.5-6.4,8.8-10.7,12.3c-1.7,1.4-3.4,2.4-5.8,2.1c-2.1-0.3-4-1.6-4.6-3.7c-0.6-1.8-0.9-3.7-0.6-5.7c0.1-0.4,0-0.8,0-1.4
		c-1.1,1.3-2,2.4-2.9,3.4c-1.8,2-3.6,3.9-5.8,5.5c-2.1,1.6-4.3,2.1-6.7,1c-2.4-1.1-3.2-3.3-3.4-5.8c-0.1-2-0.2-4.1,0.3-6.1
		c0.1-0.5,0.1-0.9,0.2-1.7c-1,0.8-1.9,1.6-2.7,2.2c-4.4,3.3-9.4,5.2-14.9,5.3c-7.1,0.1-12-3.2-15-9.5c-0.2-0.3-0.2-0.8-0.6-1.1
		c-1.1,1.7-2.2,3.3-3.5,4.8c-2.9,3.2-6.4,5.4-10.7,6.1c-4.5,0.7-8.5-0.2-11.2-4.2c-1.3-1.9-1.7-4.1-1.8-6.4c0-0.6,0-1.2,0-1.8
		c-0.5,0-0.6,0.3-0.7,0.6c-3.4,5.4-8.4,8.4-14.6,9.5c-5.2,0.9-10.3,0.4-14.9-2.7c-0.6-0.4-1.1-0.1-1.5,0.1c-2.8,1.5-5.8,1.8-9,1.6
		c-2.1-0.2-4-1.1-5.5-2.6c-0.5-0.5-0.7-0.5-1,0.2c-0.5,1.1-1.1,2.1-1.7,3.2c-0.3,0.6-0.1,0.9,0.5,1c4.1,0.9,8.2,1.8,12.3,2.5
		c4,0.6,8.1,1,12.1,0.9c0.7,0,0.8,0.4,0.7,0.9c-0.7,6.5-5.5,10.5-11.8,9.5c-5.3-0.9-10.4-2.5-15.6-4c-1.1-0.3-2.3-1-3.3-0.9
		c-1.1,0.1-1.5,1.6-2.2,2.5c-2.9,3.8-6.3,6.9-11.1,8c-3.5,0.9-6.9,0.6-10.3-0.5c-6.9-2.4-7.8-11.4-3.1-16c2.1-2,4.7-3.1,7.5-3.8
		c2.9-0.8,5.8-0.9,8.8-0.4c0.1,0,0.2,0,0.4,0.1c4.8,0.5,6.1-0.9,7.1-4.7c-0.3-0.2-0.5,0.2-0.7,0.3c-1.8,1.3-3.6,2.5-5.8,3.1
		c-4.7,1.3-8.9-0.5-11.3-4.9c-0.6-1.1-1.1-2.2-1.4-3.6c-1,1.2-1.8,2.2-2.6,3.2c-1.2,1.5-2.6,2.7-4.2,3.7c-5.7,3.6-11.7,1.7-14.4-4.5
		c-1.6-3.7-1.6-7.5-1.2-11.4c0.6-6,2.5-11.6,4.8-17.1c0.5-1.1,0.4-1.2-0.7-1c-2.9,0.5-5.8,0.5-8.7,0.3c-0.7,0-1,0.1-1.3,0.7
		c-1.8,3.8-3.7,7.6-5.6,11.4c-0.4,0.8-0.1,1.6-0.4,2.3c-2.2,6.2-5.2,11.9-10,16.5c-1.6,1.6-3.5,2.9-5.7,3.6c-3.7,1.1-6.7,0-9.2-2.7
		c-2.7-3-3.8-6.7-4-10.6c-0.2-3.4,0.3-6.8,1.2-10.3c-0.5,0.1-0.6,0.5-0.7,0.7c-3.4,5.9-6.7,11.9-9.7,18c-1.4,2.8-2.6,5.6-3.7,8.6
		c-1.1,3.1-3.6,4.8-6.7,4.8c-2.5,0-4.6-1.4-5.5-3.8c-1.1-2.8-0.9-5.8-0.6-8.7c0.3-3.4,1.1-6.8,1.9-10.1c0.1-0.3,0.2-0.5-0.1-0.9
		c-1.4,1.7-2.7,3.4-4.2,5c-5.6,6.1-12.3,10.8-19.8,14.2c-4.5,2-9.2,3.4-14.1,4c-10.7,1.2-19.1-3.9-23.5-13c-3-6.1-3.3-12.5-2.6-19
		c1.7-14.4,7.9-26.8,17.4-37.6c7.1-8.1,15.5-14.4,25.8-18c6.3-2.2,12.8-3,19.4-2.3c4.3,0.4,8.4,1.2,12.3,3.3
		c2.6,1.4,4.8,3.3,5.7,6.3c0.3,1,0.1,1.8-0.5,2.7c-4.1,6.3-7.6,12.9-9.4,20.3c-0.4,1.5-0.6,3.1-1,4.7c-0.2,1-0.7,1.8-1.9,1.6
		c-4.1-0.6-7.6-2.2-9.9-5.9c-1.8-2.9-1.7-5.8-0.6-9c1.2-3.5,2.7-6.7,4.5-9.9c0.6-1.1,0.6-1.2-0.7-1.4c-6.1-1-11.9,0.4-17.3,3
		c-14.7,7.1-25.2,18.1-31.4,33.1c-3.1,7.5-4,15.4-2.6,23.4c0.8,4.2,2.8,7.7,6.8,9.5c3,1.4,6.3,1.8,9.6,1.6
		c10.1-0.7,18.8-4.6,26.6-10.9c4.1-3.3,7.2-7.4,10.3-11.6c2.2-3.1,4.1-6.3,5.3-9.9c0.4-1.3,1.6-2,2.1-3.3c4.3-12.5,9.4-24.7,14.3-37
		c1.3-3.2,2.6-6.4,3.1-9.9c0.1-0.6,0.3-0.9,0.9-0.6c2.6,1.1,5.1,2.2,7.3,4c2.3,1.9,3.3,4.2,2.6,7.3c-0.9,3.7-2.9,6.8-4.5,10.1
		c-7.3,14.8-14.6,29.6-20.2,45.1c-1.2,3.5-2.4,7-2.9,10.7c0,0.2-0.1,0.5,0.1,0.8c1.2-2,2.4-3.9,3.5-5.8
		c7.1-11.9,14.9-23.3,23.2-34.4c1.2-1.6,2.6-3.1,2.7-5.2c0-0.6,0.5-0.4,0.8-0.2c3,1.9,5.8,3.9,7.5,7.2c1,1.9,0.5,3.7-0.2,5.5
		c-1.5,3.8-3.9,7.2-5.9,10.7c-2.2,3.8-4.2,7.6-4.9,12c-0.3,2-0.4,4,0.1,6.1c0.4,1.6,1.3,2.2,2.9,2c2.9-0.4,4.8-2.5,6.8-4.4
		c2.4-2.4,3.6-5.5,4.8-8.6c2.2-5.5,4.1-11.1,5.6-16.8c0.2-1,0.1-1.6-0.7-2.3c-3.5-2.9-4.7-6.8-4.3-11.2c0.2-1.7,1.1-2.4,2.8-2.5
		c1.7-0.1,3.1,0.6,4.7,0.9c1.7,0.3,3.4,0.9,5.1,1.3c1.2,0.3,1.3,0.7,0.7,1.8c-0.6,1.1-0.5,1.4,0.8,1.6c3.8,0.7,7.6,0.6,11.4,0.6
		c0.7,0,1-0.5,1.3-0.9c1.7-2.7,3.2-5.5,4.1-8.6c0.4-1.3,0.6-1.4,1.7-0.6c2.2,1.4,4.2,3,5.9,5c1.9,2.2,2.1,4.6,1.1,7.2
		c-1.2,3.4-3,6.5-4.8,9.6c-3.3,5.8-6.7,11.4-8.7,17.8c-0.8,2.5-1.2,5.1-1,7.8c0.2,2.6,1.5,3.4,3.9,2.6c1.6-0.6,2.9-1.6,4.2-2.7
		c1.4-1.2,2.4-2.8,3.6-4.2c1.2-1.4,1-3.2,1.2-4.8c1-6.6,3.1-12.9,5.7-19.1c2.6-6.3,6.1-12.3,8.6-18.6c0.3-0.7,0.7-0.9,1.4-0.5
		c2.9,1.6,5.5,3.6,7.3,6.4c1,1.6,1.1,3.3,0.5,5c-1.4,3.6-3.3,6.9-5.1,10.3c-2.7,5.1-5.5,10.1-7.4,15.5c-1.1,3.2-2,6.4-1.9,9.8
		c0.1,4.1,2.4,5.5,6.1,3.7c3.4-1.6,5.6-4.6,7.5-7.6c2.9-4.6,4.8-9.6,6.5-14.7c1.8-5.5,3.9-10.9,6.4-16.2c0.4-0.8,0.6-1.5,0.9-2.3
		c0.2-0.5,0.5-0.8,1-0.5c3.2,1.7,6.1,3.7,7.6,7.3c0.9,2.3,0.6,4.5-0.5,6.6c-1.6,2.9-3.3,5.8-4.9,8.8c-2.5,4.7-4.1,9.7-4.1,15.2
		c0,3.2,1.3,4.4,4.9,3.6c0.8-0.2,1-0.5,0.6-1.3c-1-2-1.6-4-1.5-6.3c0.1-3.5,1.8-6.1,5.1-7.3c0.6-0.2,1-0.7,1.3-1.2
		c3.4-5.6,6.6-11.4,9.9-17.1c1.6-2.9,3.3-5.7,5-8.6c0.3-0.5,0.5-1,0.5-1.6c0.3-2.1,1-4.1,2.3-5.9c0.9-1.2,1.2-1.2,2.5-0.5
		c2.2,1.3,4.4,2.6,6.1,4.6c1.6,1.7,2.3,3.7,1.8,6c-0.4,1.9,0.1,3.7,0.5,5.6C444.9,65.3,446.6,71.8,447.5,78.6z M495.8,51.3
		c0.4,0,0.9,0,1.3,0c4.4,0.4,7.9,2.2,9.9,6.3c1.6,3.4,1,6.7-0.4,9.9c-2.7,6.3-7.7,10.1-14.2,11.7c-4.1,1-8.2,1.1-12.1-1
		c-0.7-0.4-0.8,0.1-0.9,0.6c-0.9,3.3-1,6.6,0.2,9.9c2,5.5,7,8.5,12.7,7.4c5.7-1.1,10.4-4.1,14.8-7.7c0.5-0.4,0.6-0.9,0.7-1.5
		c1.3-5.5,2.9-10.9,4.6-16.2c2-6.2,4.1-12.4,6.4-18.5c0.4-1,0.4-1.4-0.8-1.7c-4.6-1.1-9.2-1.4-13.8-2c-3.6-0.4-7.2-0.4-10.7-0.6
		c-6.5-0.4-13,0.1-19.5,0.4c-0.8,0-1.3,0.4-1.7,1.1c-3.9,7.6-7.9,15.1-11.3,22.9c-2.3,5.3-4.6,10.6-5.9,16.3c-0.3,1.5-0.6,3-0.5,4.6
		c0.2,1.7,1,2.5,2.7,2.5c1.8,0,3.5-0.5,5-1.3c2.9-1.6,5.3-3.8,7.4-6.3c1.4-1.7,2.4-3.3,1.9-5.6c-0.1-0.5,0-1.1,0.1-1.7
		c0.6-9.5,4.2-17.6,11.2-24.1C486.4,53.4,490.7,51.2,495.8,51.3z M418.4,75.9c2.2-0.1,4.3-0.5,6.4-0.5c1.9,0,2.4,0.6,1.9,2.4
		c-1.2,4.4-2.8,8.6-5.4,12.4c-0.9,1.3-0.9,1.4,0.6,1.7c4.1,0.9,7.9,0,11.3-2.5c2.1-1.5,3.3-3.6,3.9-6.1c0.4-2.2-0.1-4.2-0.5-6.3
		c-0.9-4.3-2.5-8.4-3.8-12.6c-0.6-1.9-1.2-3.8-1.8-5.8C426.7,64.5,422.5,70.2,418.4,75.9z M384.2,107.2c-2.9-0.8-5.8-1.5-8.7-1.9
		c-2.7-0.3-5.3,0.1-7.5,1.8c-2.8,2.2-2.3,6.4,0.9,7.7c2.4,1,4.7,1,7-0.2c2.7-1.4,4.6-3.5,6.2-6C382.7,108,383.2,107.3,384.2,107.2z
		 M556.5,75.9c2.6-0.1,4.9-0.7,6.9-2c3.1-2,5.8-4.4,6.9-8c0.6-1.9-0.3-3.1-2.3-3c-1.6,0-3,0.6-4.4,1.5c-4,2.6-6.3,6.5-8.5,10.6
		c-0.3,0.5-0.2,0.8,0.4,0.9C556,75.9,556.4,75.9,556.5,75.9z M482.6,74.8c5.5,0,11.9-4.7,13.5-9.8c0.7-2.2-0.5-3.5-2.8-3.2
		c-1.8,0.3-3.3,1-4.8,2.1c-3.2,2.4-5.2,5.6-7.1,9C480.5,74.7,480.5,74.8,482.6,74.8z M423.4,78.4c-2.3,0.4-4.5,0.9-6.6,1.9
		c-3.3,1.6-3.8,4.1-1.7,7c0.8,1.1,1,1.2,2,0.1c2.1-2.1,3.9-4.5,5.4-7.1C422.9,79.8,423.3,79.3,423.4,78.4z"/>
	<path class="st0" d="M86.1,92.4C89.7,86.6,93.3,80.8,97,75c4.7-7.4,9.9-14.4,15.1-21.4c1.2-1.6,2.4-3.1,2.9-5
		c0.3-1.1,0.9-1.1,1.7-0.6c2.4,1.6,4.6,3.3,6.3,5.7c1.8,2.6,1.3,5.1,0.1,7.7c-1.9,4.2-4.6,8-6.8,12c-2.3,4.2-4,8.6-3.8,13.5
		c0.2,4,2.2,5,5.7,3c2.9-1.7,5-4.3,6.8-7.1c1.1-1.8,0.6-4,0.9-6c1.2-9,4.9-16.7,11.8-22.7c4.1-3.5,8.8-5.5,14.3-4.9
		c7.5,0.8,11.9,7.2,9.7,14.4c-3.1,10.5-15.5,17-25.9,13.3c-1.6-0.6-2.2-0.3-2.4,1.3c-0.3,2.3-0.5,4.7,0.1,7
		c1.7,7.1,7.7,10.4,14.7,8.3c4.5-1.4,8.4-3.6,12-6.5c0.8-0.6,1.4-1.4,1.4-2.4c0.1-3.1,1.6-5.5,3.4-8c5.5-7.7,12-14.4,19.8-20.2
		c-1.4,0.3-2.7,0.7-4.1,1c-1.4,0.3-2.8,0.6-4.2,0.9c-2.4,0.5-4.9,0.8-7.4,0.2c-2.5-0.7-3.8-2.1-3.9-4.6c-0.1-1.7,0-3.5,0-5.2
		c0-1.6,0.7-1.8,2.2-1.5c7.6,1.9,15.3,2.4,23.1,2.4c5.3,0,10.6-0.6,15-4.1c1-0.8,1.5-0.3,1.7,0.7c0.3,0.9,0.6,1.7,0.8,2.6
		c1.9,6.3,1.1,8.1-4.7,11.2c-8.3,4.5-16.9,8.4-24.5,14c-2.3,1.7-4.4,3.7-6.3,5.8c-1.4,1.6-2.2,3.4-2.5,5.5c-0.5,2.8,0.8,5.4,3.4,6.5
		c2.5,1.1,5,1.4,7.7,0.9c1.2-0.2,1.8-0.8,2-2c1.3-10.8,11.4-15.4,20.1-15.4c2.1,0,4.1,0.5,5.2,2.5c1,2,0.2,3.8-0.9,5.5
		c-2.7,3.9-6.6,6.3-10.6,8.7c-2.7,1.6-5.4,3-8.3,4c-1.9,0.7-2.2,1.8-1.2,3.4c1,1.9,2.4,3.4,4,4.9c0.4,0.4,1.1,0.8,0.7,1.5
		c-0.5,0.8-1.2,0.3-1.8-0.1c-2.3-1.6-4.2-3.7-5.4-6.3c-0.6-1.3-1.3-1.5-2.6-1.1c-4.6,1.4-9.1,1.9-13.5-0.9c-2.2-1.4-3.9-3.3-5-5.7
		c-0.9-1.9-1.6-1.6-2.8-0.4c-4.3,4.1-9.3,6.9-15.3,7.7c-8.3,1.1-14.6-2.3-18-10c-0.2-0.5-0.5-0.9-0.8-1.6c-2.1,2.5-3.9,5-6.3,6.9
		c-5.7,4.5-11.9,3.3-15.4-3c-2.5-4.5-2.4-9.2-2-14.1c0.1-0.7,0.5-1.4-0.1-2.6c-2,3.7-4,7.1-5.8,10.6c-2.5,4.9-5.2,9.7-7,14.9
		c-1.1,3.2-4.3,5.2-7.3,4.9c-2.9-0.3-5.1-2.5-5.7-6.1c-0.8-4.6,0.3-9.1,1.1-13.6c0.2-1.3,0.6-2.6,0.8-4c-3.6,4.8-7.8,9-12.6,12.5
		c-7.7,5.6-16,9.6-25.5,10.8c-12.4,1.5-22.5-5.6-25.7-18.1c-2-8-1.2-15.9,1.1-23.6c5.4-17.9,15.9-32,32-41.7
		c10.9-6.5,22.7-8.6,35.2-5.5c3.7,0.9,7.2,2.3,9.7,5.4c2.3,2.7,2.4,4.3,0.5,7.3c-4.4,7-7.9,14.4-9.3,22.6c-0.5,2.7-1.2,3.1-3.9,2.4
		c-5-1.1-8.4-4-9.6-9.1c-0.4-1.8,0-3.4,0.5-5.1c1-3.3,2.4-6.3,4-9.3c1.1-1.9,0.9-2.2-1.3-2.4c-4-0.4-7.9,0-11.6,1.5
		c-19.8,7.9-32.7,22-38,42.8c-1.2,4.7-1.1,9.5-0.3,14.4c1.2,7.4,5.7,11.3,13.2,11.7c8.7,0.4,16.5-2.3,23.8-6.7
		c9.5-5.7,15.7-14.2,20.7-23.9c6.7-12.9,10.5-26.8,16.5-39.9c1.6-3.5,2.7-7.2,3.7-10.9c0.2-0.9,0.3-1.8,1.5-1.3
		c3.1,1.4,6.3,2.6,8.5,5.4c1.2,1.6,1.6,3.3,1.3,5.3c-0.4,2.3-1.4,4.4-2.5,6.5C104.3,46,97.7,59.5,92,73.5
		C89.5,79.6,87.2,85.8,86.1,92.4z M137.5,72.6c0.4-0.1,1.2-0.1,2-0.3c4.8-1.2,8.3-4.2,10.5-8.6c0.5-1,0.7-2.1,0-3
		c-0.8-1-1.8-0.8-2.9-0.6c-1.7,0.3-3.1,1.1-4.4,2.2c-2.9,2.4-4.9,5.5-6.7,8.7C135.1,72.4,135.7,72.7,137.5,72.6z M186.8,91
		c4.4-1.8,8.4-3.4,11.9-6.1c0.6-0.5,1.2-1.1,1.7-1.8c0.4-0.5,0.7-1,0.4-1.7c-0.3-0.7-1-0.5-1.6-0.5C194,81.1,188.4,85.5,186.8,91z"
		/>
</g>
</svg>
