<?xml version="1.0" encoding="utf-8"?>
<!-- Generator: Adobe Illustrator 27.3.1, SVG Export Plug-In . SVG Version: 6.00 Build 0)  -->
<svg version="1.1" id="Layer_1" xmlns="http://www.w3.org/2000/svg" xmlns:xlink="http://www.w3.org/1999/xlink" x="0px" y="0px"
	 viewBox="0 0 1010 500" style="enable-background:new 0 0 1010 500;" xml:space="preserve">
<g>
	<path d="M469.6,292.3c-2.6,2-2.1,5.9,0.8,7.2c2.2,0.9,4.4,0.9,6.5-0.1c2.5-1.3,4.2-3.3,5.7-5.6c0.5-0.8,0.9-1.4,1.9-1.5
		c-2.7-0.8-5.3-1.4-8-1.7C474,290.3,471.6,290.7,469.6,292.3z"/>
	<path d="M545.2,204.7c0.2-0.2,0.3-0.5,0.2-0.8c-0.2-0.3-0.5-0.3-0.8-0.3c-2.4,0.1-5.2,2.3-6,5c2.1-0.9,4.1-1.7,5.8-3
		C544.7,205.4,545,205,545.2,204.7z"/>
	<path d="M549.6,279.2c0.2,1.6,0.9,2.3,2.5,2.4c1.7,0,3.2-0.5,4.7-1.2c2.7-1.4,4.9-3.5,6.9-5.9c1.3-1.5,2.3-3.1,1.7-5.2
		c-0.1-0.5,0-1,0.1-1.5c0.6-8.8,3.9-16.3,10.4-22.3c3.2-3,7.2-5,11.9-5c0.4,0,0.8,0,1.2,0c4.1,0.3,7.3,2,9.1,5.8
		c1.5,3.1,0.9,6.2-0.4,9.2c-2.5,5.8-7.1,9.3-13.2,10.8c-3.8,0.9-7.6,1-11.2-0.9c-0.7-0.4-0.8,0.1-0.9,0.5c-0.8,3.1-1,6.1,0.2,9.1
		c1.9,5.1,6.5,7.9,11.8,6.9c5.2-1,9.6-3.8,13.7-7.2c0.4-0.4,0.6-0.8,0.7-1.4c1.2-5.1,2.7-10.1,4.3-15c1.8-5.8,3.8-11.5,5.9-17.2
		c0.3-0.9,0.3-1.3-0.8-1.6c-4.2-1-8.5-1.3-12.8-1.8c-3.3-0.4-6.6-0.3-9.9-0.5c-6-0.3-12,0.1-18,0.4c-0.7,0-1.2,0.4-1.5,1
		c-3.6,7-7.3,14-10.5,21.2c-2.2,4.9-4.3,9.8-5.5,15.1C549.7,276.3,549.4,277.7,549.6,279.2z"/>
	<path d="M514.5,199.5c0.2,0,0.6-0.1,1-0.2c2.4-0.6,4-2,5.1-4.2c0.2-0.5,0.4-1,0-1.5c-0.4-0.5-0.9-0.4-1.4-0.3
		c-0.8,0.2-1.5,0.6-2.2,1.1c-1.4,1.2-2.4,2.7-3.3,4.3C513.3,199.5,513.6,199.6,514.5,199.5z"/>
	<path d="M540.1,242.1c-0.4,1.7,0.1,3.5,0.4,5.1c0.2,6.3,1.8,12.4,2.6,18.6c1.1-3.6,2.1-7.1,3.4-10.6c1.8-4.9,3.7-9.8,5.8-14.6
		c0.2-0.3,0.6-0.7,0.2-1.1c-0.3-0.3-0.7,0-1,0c-4,0.8-7.9,0.6-11.6-1.4c-0.1-0.1-0.3-0.2-0.4-0.3
		C540.3,239.1,540.5,240.5,540.1,242.1z"/>
	<path d="M588.1,253.2c0.6-2-0.5-3.2-2.6-2.9c-1.6,0.3-3.1,1-4.4,1.9c-3,2.2-4.8,5.2-6.5,8.4c-1,1.7-1,1.7,1,1.7
		C580.7,262.3,586.7,258,588.1,253.2z"/>
	<path d="M523.8,265.2c-1.1,4.1-2.6,8-5,11.5c-0.8,1.2-0.8,1.3,0.6,1.6c3.8,0.8,7.3,0,10.5-2.3c1.9-1.4,3.1-3.3,3.6-5.7
		c0.4-2-0.1-3.9-0.5-5.8c-0.9-4-2.3-7.8-3.5-11.6c-0.6-1.7-1.1-3.5-1.7-5.4c-4,5.3-7.8,10.6-11.7,15.9c2.1-0.1,4-0.4,5.9-0.4
		C523.7,263,524.3,263.5,523.8,265.2z"/>
	<path d="M515,274.1c1.9-2,3.6-4.2,5-6.6c0.3-0.6,0.7-1.1,0.8-1.8c-2.2,0.4-4.2,0.9-6.1,1.8c-3,1.5-3.6,3.8-1.6,6.5
		C513.8,275,514.1,275.1,515,274.1z"/>
	<path d="M643.2,263.2c0.4,0.1,0.7,0.1,0.8,0.1c2.4-0.1,4.5-0.7,6.4-1.8c2.9-1.8,5.4-4.1,6.4-7.5c0.6-1.8-0.3-2.8-2.1-2.8
		c-1.5,0-2.8,0.6-4,1.4c-3.7,2.4-5.9,6-7.9,9.8C642.5,262.9,642.7,263.2,643.2,263.2z"/>
	<path d="M0,0.5v499h1010V0.5H0z M697.1,290.3c6.1,4.4,12.2,8.8,18.3,13.3c1.1,0.8,1.1,0.8,0,1.6c-1.7,1.3-1.3,1.3-3,0
		c-6.5-4.7-12.9-9.3-19.4-14c-0.5-0.4-1.5-0.6-1-1.6c-0.3-0.6,0.1-0.9,0.5-1.2c6.8-5,13.7-9.9,20.5-14.9c0.7-0.5,2.8,0.3,3,1.2
		c0.1,0.5-0.3,0.6-0.6,0.8c-2.5,2.1-5.3,3.9-7.9,5.9c-3.5,2.5-6.9,5-10.4,7.5C696.3,289.5,696.4,289.7,697.1,290.3z M696.8,212.8
		c5.2,3.8,10.5,7.6,15.7,11.4c1,0.7,1.9,1.5,2.8,2.3c0.4,0.3,0.5,0.6,0,0.9c0,0-0.1,0-0.1,0.1c-1.7,1.4-1.7,1.4-3.5,0.1
		c-6.5-4.7-12.9-9.3-19.4-14c-1.4-1-1.3-1.8,0-2.8c6.7-4.9,13.4-9.7,20.2-14.6c0.3-0.5,0.6-0.6,0.8-0.7c0.4,0,2.2,1.3,2.2,1.5
		c0.1,0.4-0.3,0.6-0.5,0.8c-1.7,1.6-3.7,2.9-5.6,4.3c-4.2,3.1-8.4,6.1-12.6,9.2C695.8,212.1,695.8,212.1,696.8,212.8z M709.1,229.4
		c0.4,0.2,1.1,0.5,0.7,1.3c0.3,0.6-0.1,0.9-0.5,1.2c-6.2,4.5-12.4,9-18.7,13.5c-0.5,0.4-0.8,0.3-1.2-0.2c-1.6-1.6-1.6-1.7,0.2-3
		c5-3.6,10-7.3,15.1-10.9c0.8-0.6,0.8-0.9,0-1.4c-5.4-3.8-10.7-7.7-16.1-11.5c-0.9-0.6-0.9-1-0.2-1.8c1.2-1.3,1.1-1.4,2.6-0.3
		C697,220.7,703.1,225,709.1,229.4z M691.8,231.2c0,2.2-1.7,3.8-3.9,3.8c-2.2,0-3.8-1.7-3.8-3.9c0-2.1,1.7-3.9,3.8-3.9
		C690.1,227.2,691.8,229,691.8,231.2z M682.5,193.4c-2.2,0-3.9-1.8-3.8-4c0.1-2,1.9-3.8,3.9-3.7c2-0.1,3.7,1.8,3.7,3.9
		C686.3,191.7,684.5,193.4,682.5,193.4z M682.5,310.3c2.2,0,4,1.7,3.9,3.9c0,2-1.8,3.8-3.9,3.8s-3.9-1.8-3.9-3.9
		C678.7,312.1,680.5,310.3,682.5,310.3z M684.6,270.6c0-2.1,1.8-4,3.8-3.9c2.1,0,4,1.9,4,3.9c0,2.1-1.9,4-4,3.9
		C686.3,274.5,684.6,272.7,684.6,270.6z M690,282c5-3.6,10-7.3,15.1-10.9c1-0.7,1-0.8,0-1.5c-5.3-3.8-10.6-7.7-16-11.5
		c-0.8-0.6-1-1.1-0.2-1.8c0.2-0.1,0.3-0.3,0.4-0.5c0.9-1,1.4-1.1,2.4-0.3c4.2,3.1,8.4,6.1,12.6,9.2c0.8,0.6,1.5,1.2,2.3,1.7
		c1.4,0.7,2,2.3,3.4,3c0.4,0.1,0.4,0.5,0.3,0.9c0.2,0.6-0.1,0.9-0.5,1.2c-6.2,4.4-12.3,8.9-18.5,13.4c-0.7,0.5-1.2,0.4-1.6-0.2
		C688.4,283,688.2,283.3,690,282z M715.4,266.4c-1.8,1.2-1.2,1.3-2.9,0.1c-6.6-4.7-13.1-9.5-19.7-14.2c-1.1-0.8-0.9-1.8-1.4-2.7
		c-0.2-0.3,0.3-0.5,0.5-0.6c6.9-5,13.9-10,20.8-15.1c0.4-0.3,0.8-0.4,1.2,0c2.3,1.7,2.5,1.4,0,3.1c-5.6,4-11.1,8.1-16.7,12
		c-0.3,0.3-0.8,0.6-1.2,1c0.8,0.1,0.7,1,1.3,1.4c6.1,4.3,12.1,8.8,18.1,13.1C716.5,265.3,716.6,265.6,715.4,266.4z M711.1,253.6
		c-1.1-1.1-1.8-4-1.2-5.2c0.7-1.4,1.9-2,3.5-2.2c0.3,0.1,0.7,0.1,1,0.2c2.5,0.7,4,4.2,2.8,6.4C716,255,712.8,255.4,711.1,253.6z
		 M713.4,215.9c-2.1,0-4-1.8-4-3.9c0-2.1,1.8-3.9,4-3.9c2.1,0,3.9,1.8,3.9,3.9C717.3,214.1,715.5,215.9,713.4,215.9z M713.2,172
		c2.1,0,3.9,1.8,3.9,3.9c0,2-1.8,3.8-3.8,3.9c-2,0-4-1.9-3.9-3.9C709.3,173.8,711.1,172,713.2,172z M691.3,176.2
		c0.3-0.8,0.8-1.5,1.5-2c0.1-0.1,0.2-0.1,0.3-0.1c0.2,0.1,0.3,0.2,0.5,0.3c7,5.1,14,10,20.9,15.3c1.2,0.9,1.1,0.9,0,1.9
		c-1,0.8-1.7,0.7-2.7,0c-6.5-4.8-13.1-9.5-19.6-14.2C691.8,177.1,691,176.9,691.3,176.2z M681.6,173.4c0.6-0.5,1.1-0.6,1.8,0
		c7.4,5.4,14.9,10.8,22.3,16.2c1.2,0.9,2.4,1.7,3.6,2.6c0.4,0.4,0.8,0.6,0.5,1.2c0.4,0.7-0.2,1-0.6,1.3c-6,4.3-12,8.7-17.9,13
		c-0.6,0.5-1,0.4-1.5-0.2c-1.6-2-1.4-1.5,0.3-2.8c4.9-3.6,9.8-7.1,14.7-10.7c0.6-0.4,0.8-0.6,0.1-1.2c-7.2-5.1-14.3-10.3-21.4-15.5
		c-0.8-0.6-1.3-0.5-2,0.1c-5.9,4.4-11.8,8.7-17.7,13c-0.4,0.3-0.7,0.5-1.1,0.8c-0.4,0.3-0.7,0.2-0.9-0.2c0,0,0-0.1-0.1-0.1
		c-1.5-1.8-1.5-1.8,0.4-3.2c5.1-3.7,10.2-7.4,15.3-11.1C678.8,175.6,680.2,174.5,681.6,173.4z M652.3,172.2c2.2,0,3.8,1.7,3.8,3.9
		c0,2.1-1.7,3.8-3.8,3.8c-2.2,0-3.8-1.6-3.8-3.8C648.5,173.8,650.1,172.2,652.3,172.2z M630.2,176.2c0.3-0.8,0.8-1.5,1.5-2
		c0.3-0.2,0.7,0.2,1,0.4c6.2,4.5,12.4,8.9,18.5,13.5c0.8,0.6,1.3,0.5,2-0.1c6.1-4.5,12.2-8.9,18.4-13.4c0.7-0.5,1.2-0.5,1.6,0.2
		c0.1,0.3,0.3,0.5,0.5,0.7c0.6,0.7,0.4,1.1-0.3,1.6c-3.1,2.2-6.2,4.5-9.3,6.8c-3.6,2.6-7.3,5.3-10.9,7.9c-0.3,0.4-0.6,0.7-1.1,0.7
		c-0.2-0.1-0.5-0.3-0.7-0.5c-6.8-4.9-13.5-9.8-20.3-14.7C630.7,177,630,176.8,630.2,176.2z M622.9,173.6c6.8,5,13.7,9.9,20.5,14.9
		c0.4,0.2,0.8,0.4,0.9,0.9c-0.3,0.7-0.8,1.4-1.5,2c-0.5,0.4-0.9-0.2-1.2-0.4c-6-4.4-12.1-8.7-18.1-13.1c-1-0.7-1.6-0.7-2.6,0
		c-6,4.5-12.1,8.8-18.2,13.2c-0.7,0.5-1.1,0.5-1.6-0.3c-0.2-0.3-0.4-0.6-0.6-0.8c-0.5-0.6-0.4-1,0.2-1.4c6.9-5,13.7-10,20.6-15
		C621.9,173.2,622.3,173.2,622.9,173.6z M626.1,189.6c0,2.1-1.8,3.9-3.9,3.9c-2,0-3.8-1.8-3.9-3.8c0-2.1,1.7-3.9,3.8-4
		C624.2,185.7,626.1,187.5,626.1,189.6z M592.1,172.3c2.1,0,3.7,1.7,3.7,3.8c0,2.2-1.7,3.8-3.9,3.8c-2.1,0-3.7-1.8-3.7-3.9
		C588.2,173.8,589.9,172.2,592.1,172.3z M570.4,175.5c1.2-1.5,1.1-1.6,2.7-0.4c6,4.4,12.1,8.7,18.1,13.1c0.6,0.4,1,0.4,1.5,0
		c6.1-4.5,12.2-8.9,18.4-13.3c0.4-0.3,0.8-0.9,1.3-0.5c0.7,0.5,1.2,1.3,1.5,2c-0.1,0.5-0.5,0.7-0.8,0.9c-4.1,3-8.2,5.9-12.3,8.9
		c-2.6,1.9-5.3,3.8-7.9,5.7c-0.7,0.6-1.3,0.6-2,0c-6.8-4.9-13.5-9.8-20.3-14.7C569.8,176.6,569.8,176.2,570.4,175.5z M561.4,173.5
		c0.4-0.3,0.7-0.2,1.1,0c1.6,1.2,3.3,2.4,4.9,3.6c5.2,3.8,10.4,7.6,15.7,11.4c0.4,0.2,0.8,0.3,0.9,0.9c-0.4,0.7-0.8,1.5-1.5,2
		c-0.5,0.4-0.9-0.3-1.3-0.5c-5.8-4.2-11.6-8.4-17.4-12.6c-1.4-1-1.9-2.7-2.7-4.1C560.9,173.9,561.2,173.7,561.4,173.5z M455.1,195.8
		c2.6-8.8,7.8-15.7,15.7-20.4c5.3-3.2,11.1-4.2,17.3-2.7c1.8,0.4,3.5,1.2,4.8,2.6c1.1,1.3,1.2,2.1,0.3,3.6c-2.2,3.4-3.9,7-4.5,11.1
		c-0.2,1.3-0.6,1.5-1.9,1.2c-2.4-0.6-4.1-1.9-4.7-4.4c-0.2-0.9,0-1.7,0.2-2.5c0.5-1.6,1.2-3.1,2-4.6c0.5-0.9,0.4-1.1-0.6-1.2
		c-1.9-0.2-3.9,0-5.7,0.7c-9.7,3.9-16,10.8-18.6,21c-0.6,2.3-0.5,4.7-0.2,7c0.6,3.6,2.8,5.6,6.5,5.7c4.3,0.2,8.1-1.1,11.7-3.3
		c4.6-2.8,7.7-6.9,10.2-11.7c3.3-6.3,5.1-13.1,8.1-19.6c0.8-1.7,1.3-3.5,1.8-5.3c0.1-0.4,0.2-0.9,0.8-0.6c1.5,0.7,3.1,1.3,4.2,2.6
		c0.6,0.8,0.8,1.6,0.6,2.6c-0.2,1.1-0.7,2.2-1.2,3.2c-3.3,6.6-6.6,13.2-9.4,20c-1.4,3.2-2.6,6.2-3.1,9.4c1.8-2.8,3.5-5.7,5.3-8.5
		c2.3-3.6,4.8-7.1,7.4-10.5c0.6-0.8,1.2-1.5,1.4-2.5c0.1-0.5,0.4-0.6,0.8-0.3c1.2,0.8,2.3,1.6,3.1,2.8c0.9,1.3,0.6,2.5,0,3.8
		c-1,2-2.3,3.9-3.3,5.9c-1.1,2.1-2,4.2-1.9,6.6c0.1,1.9,1.1,2.5,2.8,1.5c1.4-0.9,2.5-2.1,3.3-3.5c0.5-0.9,0.3-1.9,0.4-2.9
		c0.6-4.4,2.4-8.2,5.8-11.1c2-1.7,4.3-2.7,7-2.4c3.7,0.4,5.8,3.5,4.8,7.1c-1.5,5.2-7.6,8.3-12.7,6.5c-0.8-0.3-1.1-0.2-1.2,0.6
		c-0.2,1.1-0.2,2.3,0,3.4c0.9,3.5,3.8,5.1,7.2,4.1c2.2-0.7,4.1-1.8,5.9-3.2c0.4-0.3,0.7-0.7,0.7-1.2c0-1.5,0.8-2.7,1.7-3.9
		c2.7-3.8,5.9-7.1,9.7-9.9c-0.7,0.2-1.3,0.3-2,0.5c-0.7,0.2-1.4,0.3-2.1,0.5c-1.2,0.3-2.4,0.4-3.6,0.1c-1.2-0.3-1.8-1-1.9-2.3
		c0-0.8,0-1.7,0-2.5s0.4-0.9,1.1-0.7c3.7,0.9,7.5,1.2,11.3,1.2c2.6,0,5.2-0.3,7.3-2c0.5-0.4,0.7-0.2,0.9,0.3
		c0.1,0.4,0.3,0.8,0.4,1.3c0.9,3.1,0.5,4-2.3,5.5c-4.1,2.2-8.3,4.1-12,6.9c-1.1,0.8-2.2,1.8-3.1,2.9c-0.7,0.8-1.1,1.7-1.2,2.7
		c-0.2,1.4,0.4,2.6,1.7,3.2c1.2,0.6,2.5,0.7,3.8,0.5c0.6-0.1,0.9-0.4,1-1c0.7-5.3,5.6-7.5,9.8-7.6c1,0,2,0.2,2.5,1.2
		s0.1,1.9-0.5,2.7c-1.3,1.9-3.2,3.1-5.2,4.2c-1.3,0.8-2.7,1.5-4.1,2c-0.9,0.3-1.1,0.9-0.6,1.7c0.5,0.9,1.2,1.7,1.9,2.4
		c0.2,0.2,0.5,0.4,0.3,0.7c-0.3,0.4-0.6,0.1-0.9,0c-1.1-0.8-2.1-1.8-2.6-3.1c-0.3-0.7-0.6-0.7-1.3-0.6c-2.2,0.7-4.5,0.9-6.6-0.4
		c-1.1-0.7-1.9-1.6-2.5-2.8c-0.4-0.9-0.8-0.8-1.4-0.2c-2.1,2-4.5,3.4-7.5,3.8c-4.1,0.6-7.2-1.1-8.8-4.9c-0.1-0.2-0.2-0.4-0.4-0.8
		c-1,1.2-1.9,2.4-3.1,3.4c-2.8,2.2-5.8,1.6-7.5-1.5c-1.2-2.2-1.2-4.5-1-6.9c0-0.4,0.2-0.7,0-1.3c-1,1.8-2,3.5-2.8,5.2
		c-1.2,2.4-2.5,4.8-3.4,7.3c-0.5,1.6-2.1,2.6-3.6,2.4c-1.4-0.2-2.5-1.2-2.8-3c-0.4-2.3,0.2-4.5,0.6-6.7c0.1-0.6,0.3-1.3,0.4-2
		c-1.8,2.3-3.8,4.4-6.2,6.1c-3.7,2.7-7.8,4.7-12.5,5.3c-6.1,0.7-11-2.8-12.6-8.9C453.5,203.5,453.9,199.6,455.1,195.8z M447.9,237.7
		c1.1,0.3,1.2,0.6,0.7,1.7s-0.5,1.3,0.7,1.5c3.5,0.7,7.1,0.6,10.6,0.6c0.6,0,0.9-0.4,1.2-0.9c1.5-2.5,2.9-5.1,3.8-8
		c0.4-1.2,0.5-1.3,1.6-0.6c2,1.3,3.9,2.7,5.5,4.6c1.8,2.1,1.9,4.3,1.1,6.7c-1.1,3.1-2.8,6-4.4,8.9c-3,5.3-6.2,10.6-8,16.5
		c-0.7,2.3-1.1,4.7-1,7.2c0.2,2.4,1.4,3.2,3.7,2.4c1.5-0.5,2.7-1.5,3.9-2.5c1.3-1.2,2.2-2.6,3.3-3.8c1.2-1.3,0.9-2.9,1.1-4.4
		c0.9-6.1,2.9-12,5.3-17.7c2.4-5.9,5.6-11.4,8-17.3c0.3-0.7,0.7-0.8,1.3-0.5c2.7,1.5,5.1,3.3,6.7,5.9c0.9,1.5,1.1,3,0.4,4.7
		c-1.3,3.3-3.1,6.4-4.7,9.5c-2.5,4.7-5.1,9.3-6.9,14.4c-1.1,2.9-1.8,5.9-1.7,9.1c0.1,3.8,2.2,5.1,5.7,3.5c3.2-1.5,5.2-4.2,7-7.1
		c2.7-4.2,4.5-8.9,6-13.6c1.7-5.1,3.6-10.1,5.9-15c0.3-0.7,0.6-1.4,0.8-2.2c0.2-0.5,0.4-0.7,0.9-0.5c3,1.6,5.7,3.5,7,6.8
		c0.8,2.1,0.6,4.2-0.5,6.1c-1.5,2.7-3.1,5.4-4.5,8.1c-2.3,4.4-3.8,9-3.8,14.1c0,3,1.2,4,4.5,3.3c0.7-0.2,1-0.5,0.6-1.2
		c-0.9-1.8-1.5-3.7-1.4-5.9c0.1-3.3,1.7-5.6,4.7-6.7c0.6-0.2,0.9-0.6,1.2-1.1c3.2-5.2,6.1-10.5,9.2-15.8c1.5-2.7,3-5.3,4.6-8
		c0.3-0.5,0.4-0.9,0.5-1.4c0.3-2,0.9-3.8,2.1-5.4c0.8-1.1,1.1-1.1,2.3-0.4c1.2,0.7,2.4,1.5,3.5,2.3c0-0.1-0.1-0.1-0.1-0.2
		c-1-2-0.9-3.9,0.3-5.8c1-1.6,2.5-2.7,4.1-3.6c1-0.5,2.6-0.2,3.3,0.6c0.3,0.3,0.5,0.7,0.3,1.1c-0.3,0.4-0.7,0.4-1.1,0.2
		c-2.1-0.7-3.2-0.2-3.7,1.6c-0.6,2.1,0.2,3.6,2.1,4.3c2.2,0.7,4.3,0.3,6.5-0.1c2.7-0.5,5.3-1.2,8-1.8c0.8-0.2,1.2-0.5,1.5-1.2
		c2.3-5,4.3-10.2,6.3-15.4c0.5-1.3,0.7-1.5,1.9-0.9c3.2,1.3,5.9,3.3,7.7,6.4c1,1.7,0.9,3.5,0.3,5.2c-0.2,0.6-0.5,1.1-0.8,1.7
		c-0.1,0.2-0.3,0.4-0.1,0.7c0.2,0.2,0.4,0.1,0.6,0.1c3.8-0.4,7.7-0.9,11.6-1.1c5.6-0.3,11.1-0.4,16.7,0.1c2.2,0.2,4.5,0.6,6.7,0.9
		c1.6,0.3,3,0.8,4.3,1.7c0.7,0.5,0.9,0.3,1.2-0.4c1.6-4,3.2-8,4.9-12c1.5-3.5,2.8-7.2,3.9-10.8c0.2-0.6,0.2-1.2,0.3-1.7
		c0.1-0.7,0.5-1,1.2-0.7c2.8,1,5.3,2.6,7.4,4.7c2,2,2.4,4.3,1.3,6.9c-0.5,1.3-1.1,2.6-1.7,3.9c-5.2,10.6-10.3,21.3-15,32.2
		c-3.4,7.9-6.8,15.9-9.4,24.1c-0.8,2.6-1.6,5.3-1.8,8.1c0,0.6-0.3,1.4,0.3,1.7c0.6,0.4,1.2-0.2,1.7-0.6c2.4-1.6,4.3-3.7,6.1-5.9
		c0.4-0.5,0.7-1,1.1-1.4c1.9-1.9,2.2-4.4,2.8-6.8c2.7-10.2,6.2-20.3,9.8-30.2c3.3-8.9,6.8-17.6,10.5-26.3c1.3-3,2.5-6.2,3-9.5
		c0.1-0.7,0.5-0.9,1.2-0.7c3.1,1.3,6,2.9,8.1,5.6c1.4,1.7,1.4,3.7,0.7,5.7c-1,3-2.5,5.7-3.9,8.5c-6.8,14.1-13.5,28.3-19.1,43
		c-1.8,4.6-3.4,9.3-4.5,14.1c-0.2,1.1-0.4,2.2-0.4,3.4c0,0.5-0.2,1,0.3,1.3s1-0.1,1.4-0.4c1.8-1.2,3.4-2.7,4.8-4.4
		c1.6-1.8,3-3.7,4.4-5.5c0.6-0.7,0.8-1.5,0.7-2.5c-0.6-4.9,0.4-9.6,2.2-14.2c2.5-6.2,6.3-11.4,12.2-14.7c4.4-2.5,9-3.1,13.8-1
		c3.9,1.8,6,5.9,5.3,10.1c-1.3,7.5-7.5,13.5-15.2,14.8c-2.9,0.5-5.9,0.5-8.8-0.4c-0.2-0.1-0.5-0.2-0.7-0.3c-1.4-0.6-1.4-0.6-1.8,0.9
		c-0.8,3.1-0.7,6.2,0.7,9.2c2.2,4.9,6.8,7.2,12,5.9c6.5-1.7,11.9-5.2,16.3-10.3c0.2-0.2,0.3-0.4,0.5-0.6c0.4-0.5,0.9-1,1.6-0.5
		c0.8,0.5,0.4,1.1,0.1,1.6c-2.2,3.6-4.8,6.8-8.1,9.5c-4.3,3.4-9.2,5.3-14.8,5.3c-6,0-10.2-2.8-13-8c-0.9-1.6-0.8-1.6-1.9-0.1
		c-2.9,4.1-6,8.2-9.9,11.4c-1.5,1.3-3.2,2.2-5.3,2c-1.9-0.2-3.7-1.5-4.2-3.4c-0.5-1.7-0.8-3.4-0.5-5.2c0.1-0.3,0-0.7,0-1.3
		c-1,1.2-1.8,2.2-2.7,3.2c-1.6,1.9-3.4,3.6-5.3,5.1c-1.9,1.5-4,1.9-6.2,1c-2.3-1-3-3.1-3.1-5.4c-0.1-1.9-0.1-3.8,0.3-5.6
		c0.1-0.4,0.1-0.9,0.2-1.5c-1,0.8-1.7,1.4-2.5,2.1c-4.1,3.1-8.7,4.8-13.8,4.9c-6.5,0.1-11.1-3-13.9-8.8c-0.2-0.3-0.2-0.7-0.6-1
		c-1,1.6-2,3.1-3.3,4.4c-2.7,3-5.9,5-9.9,5.6c-4.1,0.6-7.8-0.2-10.3-3.9c-1.2-1.8-1.6-3.8-1.7-5.9c0-0.5,0-1.1,0-1.7
		c-0.5,0-0.5,0.3-0.6,0.5c-3.1,5-7.8,7.8-13.5,8.8c-4.9,0.9-9.6,0.4-13.8-2.5c-0.6-0.4-1-0.1-1.4,0.1c-2.6,1.4-5.4,1.7-8.3,1.4
		c-2-0.2-3.7-1-5.1-2.4c-0.5-0.5-0.7-0.5-1,0.2c-0.5,1-1,2-1.5,2.9c-0.3,0.5-0.1,0.8,0.4,1c3.8,0.8,7.6,1.7,11.4,2.3
		c3.7,0.6,7.5,0.9,11.2,0.8c0.6,0,0.7,0.3,0.7,0.8c-0.7,6.1-5.1,9.8-10.9,8.8c-4.9-0.8-9.7-2.3-14.4-3.7c-1-0.3-2.1-0.9-3.1-0.8
		c-1.1,0.1-1.4,1.5-2,2.3c-2.7,3.5-5.9,6.3-10.3,7.4c-3.2,0.8-6.4,0.6-9.6-0.5c-6.4-2.2-7.2-10.6-2.9-14.8c1.9-1.9,4.3-2.9,6.9-3.6
		c2.7-0.7,5.4-0.8,8.1-0.4c0.1,0,0.2,0,0.3,0c4.4,0.5,5.6-0.8,6.6-4.3c-0.3-0.1-0.4,0.2-0.6,0.3c-1.6,1.2-3.4,2.3-5.4,2.8
		c-4.3,1.2-8.2-0.5-10.4-4.5c-0.5-1-1-2.1-1.3-3.3c-0.9,1.1-1.6,2-2.4,2.9c-1.1,1.4-2.4,2.5-3.9,3.4c-5.3,3.3-10.8,1.5-13.4-4.2
		c-1.5-3.4-1.5-7-1.1-10.5c0.6-5.5,2.3-10.7,4.5-15.8c0.4-1,0.4-1.1-0.7-1c-2.7,0.4-5.4,0.4-8.1,0.3c-0.6,0-0.9,0.1-1.2,0.7
		c-1.7,3.5-3.4,7-5.1,10.5c-0.4,0.7-0.1,1.4-0.4,2.1c-2.1,5.7-4.9,11-9.3,15.3c-1.5,1.5-3.3,2.6-5.3,3.3c-3.4,1.1-6.2,0-8.5-2.5
		c-2.5-2.8-3.6-6.2-3.7-9.8c-0.2-3.2,0.2-6.3,1.1-9.5c-0.4,0.1-0.5,0.4-0.6,0.6c-3.1,5.5-6.2,11-9,16.7c-1.3,2.6-2.4,5.2-3.4,7.9
		c-1,2.8-3.4,4.4-6.2,4.4c-2.4,0-4.2-1.3-5.1-3.5c-1-2.6-0.8-5.4-0.6-8.1c0.3-3.2,1-6.3,1.8-9.3c0.1-0.2,0.2-0.5-0.1-0.8
		c-1.3,1.6-2.5,3.1-3.9,4.6c-5.2,5.7-11.4,10-18.3,13.1c-4.2,1.9-8.5,3.1-13.1,3.7c-9.9,1.1-17.7-3.6-21.8-12
		c-2.7-5.6-3.1-11.6-2.4-17.6c1.5-13.3,7.3-24.8,16.1-34.8c6.6-7.5,14.4-13.3,23.9-16.7c5.8-2,11.8-2.8,18-2.1c4,0.4,7.8,1.1,11.4,3
		c2.4,1.3,4.4,3.1,5.3,5.8c0.3,0.9,0.1,1.7-0.4,2.5c-3.8,5.9-7,12-8.7,18.8c-0.3,1.4-0.6,2.9-0.9,4.3c-0.2,0.9-0.6,1.7-1.8,1.5
		c-3.8-0.5-7.1-2-9.2-5.5c-1.6-2.7-1.6-5.4-0.6-8.3c1.1-3.2,2.5-6.2,4.2-9.2c0.6-1,0.5-1.1-0.6-1.3c-5.7-0.9-11,0.4-16,2.8
		c-13.6,6.5-23.3,16.8-29.1,30.7c-2.9,7-3.7,14.3-2.4,21.7c0.7,3.9,2.6,7.1,6.3,8.8c2.8,1.3,5.8,1.6,8.9,1.4
		c9.3-0.6,17.4-4.3,24.6-10.1c3.8-3,6.7-6.8,9.5-10.7c2-2.8,3.8-5.8,4.9-9.1c0.4-1.2,1.5-1.8,1.9-3c4-11.6,8.7-22.9,13.3-34.3
		c1.2-3,2.4-6,2.9-9.2c0.1-0.5,0.3-0.8,0.9-0.5c2.4,1,4.7,2.1,6.8,3.7c2.2,1.8,3,3.9,2.4,6.8c-0.8,3.4-2.7,6.3-4.2,9.4
		c-6.8,13.7-13.5,27.4-18.7,41.8c-1.2,3.2-2.2,6.5-2.7,9.9c0,0.2-0.1,0.4,0.1,0.8c1.1-1.8,2.2-3.6,3.3-5.4
		c6.6-11,13.8-21.6,21.5-31.8c1.1-1.4,2.4-2.9,2.5-4.8c0-0.5,0.4-0.4,0.7-0.2c2.8,1.7,5.4,3.6,7,6.6c0.9,1.8,0.5,3.5-0.2,5.1
		c-1.4,3.5-3.6,6.6-5.4,9.9c-2,3.5-3.9,7.1-4.5,11.1c-0.3,1.9-0.3,3.7,0.1,5.6c0.3,1.5,1.2,2.1,2.7,1.8c2.7-0.4,4.5-2.3,6.3-4.1
		c2.2-2.2,3.3-5.1,4.5-7.9c2-5.1,3.8-10.2,5.2-15.5c0.2-0.9,0.1-1.5-0.6-2.1c-3.2-2.7-4.4-6.3-4-10.4c0.2-1.6,1-2.2,2.6-2.3
		c1.5-0.1,2.9,0.5,4.3,0.8C444.8,236.8,446.3,237.3,447.9,237.7z M626.2,314.3c0,2.1-1.7,3.9-3.8,3.9s-3.9-1.8-3.9-3.9
		s1.7-3.8,3.8-3.9C624.4,310.4,626.2,312.2,626.2,314.3z M566,312.7c0,2.1-1.8,3.9-3.9,3.9c-2,0.1-3.8-1.7-3.8-3.8
		c0-2.1,1.8-3.9,3.9-3.9C564.2,308.9,566,310.7,566,312.7z M505.5,312.8c0,2.1-1.8,3.9-3.9,3.9c-2.1-0.1-3.8-1.8-3.8-4
		c0-2.1,1.8-3.9,3.9-3.8C503.7,308.9,505.5,310.7,505.5,312.8z M445.2,312.9c0,2-1.9,3.8-3.9,3.8c-2.1,0-4-1.9-3.9-3.9
		c0.1-2.1,1.8-3.9,3.9-3.9C443.4,308.9,445.2,310.8,445.2,312.9z M384.6,314.2c0,2.1-1.7,3.9-3.8,3.9c-2.1,0.1-3.8-1.6-3.8-3.8
		s1.7-3.9,3.8-3.9C382.8,310.4,384.6,312.2,384.6,314.2z M376.8,189.6c0-2.1,1.8-3.8,3.9-3.8c2,0,3.8,1.8,3.8,3.8
		c0,2.1-1.8,3.9-3.9,3.9C378.6,193.5,376.8,191.7,376.8,189.6z M439,174.4c0.4-0.2,0.7-0.7,1.1-0.5s0.2,0.8,0.2,1.2
		c0.1,0.2,0,0.3,0,0.7c0.3,1.1-0.4,1.8-1.3,2.5c-5.9,4.2-11.7,8.5-17.5,12.7c-0.8,0.6-1.2,0.4-1.7-0.3c-1.1-1.6-1.2-1.6,0.5-2.7
		c6.1-4.4,12.2-8.9,18.3-13.3C438.7,174.6,438.8,174.5,439,174.4z M410.8,172.2c2.1,0,3.9,1.7,3.9,3.8c0.1,2.1-1.7,3.9-3.8,3.9
		c-2.2,0-3.8-1.7-3.9-3.9C407,174,408.8,172.2,410.8,172.2z M389.4,175.6c0.2-0.2,0.4-0.5,0.5-0.7c0.4-0.7,0.8-0.7,1.4-0.2
		c2.3,1.7,4.7,3.4,7.1,5.1c3.9,2.8,7.8,5.6,11.6,8.5c0.7,0.5,1.2,0.5,1.8,0c6-4.4,12.1-8.8,18.1-13.1c1.3-1,1.3-1,2.3,0.4
		c0.2,0.1,0.4,0.5,0.6,0.8c0,0.6-0.5,0.8-0.8,1c-4.4,3.2-8.7,6.3-13.1,9.5c-2.4,1.8-4.8,3.5-7.2,5.3c-0.6,0.4-1,0.4-1.6,0
		c-6.8-5-13.7-9.9-20.5-14.9C388.8,176.7,388.7,176.3,389.4,175.6z M381.5,173.6c6.8,4.9,13.6,9.8,20.3,14.7
		c0.5,0.4,0.9,0.6,0.9,1.1c-0.5,0.7-0.9,1.5-1.6,2c-0.3,0.2-0.5-0.1-0.8-0.3c-6.1-4.4-12.1-8.8-18.2-13.2c-1.5-1.1-1.5-1.1-2.9-0.1
		c-6,4.3-11.9,8.7-17.9,13c-0.8,0.6-1.3,0.7-1.8-0.3c-0.1-0.2-0.3-0.4-0.5-0.6c-0.6-0.6-0.5-1,0.2-1.5c3.1-2.2,6.2-4.5,9.3-6.8
		c3.7-2.7,7.4-5.3,11-8C380.2,173.1,380.7,173,381.5,173.6z M350.8,172.2c2.1,0,3.8,1.8,3.8,4c0,2-1.8,3.7-3.9,3.7
		c-2.1,0-3.9-1.8-3.8-3.9C346.8,173.9,348.6,172.2,350.8,172.2z M329.2,175.3c1.1-1.4,1.1-1.4,2.5-0.4c6,4.4,12.1,8.7,18.1,13.1
		c0.7,0.5,1.2,0.4,1.8-0.1c6-4.4,12.1-8.8,18.2-13.2c0.4-0.3,0.8-0.9,1.3-0.5c0.6,0.8,1,1.5,1.5,2.1c0,0.5-0.3,0.7-0.6,0.9
		c-6.9,5-13.8,10-20.7,15c-0.5,0.4-0.9,0.3-1.4-0.1c-6.8-5-13.7-9.9-20.5-14.9C328.5,176.6,328.6,176.1,329.2,175.3z M321.3,173.7
		c6.7,4.9,13.5,9.8,20.2,14.7c0.4,0.3,1.1,0.5,0.8,1.1c-0.4,0.7-0.8,1.5-1.6,1.9c-0.3,0.1-0.6-0.2-0.9-0.4c-5-3.6-10-7.2-15-10.9
		c-1.2-0.9-2.5-1.8-3.7-2.7c-0.7-0.5-1.2-0.5-1.9,0c-6.2,4.5-12.3,9-18.5,13.5c-1,0.7-1.9,1.4-2.9,2c-0.6,0.4-0.6,0.7,0,1.1
		c3.7,2.6,7.4,5.3,11,8c1.6,1.1,3.1,2.3,4.7,3.4c0.5,0.3,0.6,0.7,0.2,1.2c-1.8,2.1-1.2,1.9-3.2,0.5c-5.7-4.1-11.4-8.3-17.1-12.4
		c-0.2-0.2-0.7-0.4-0.3-1c-0.3-0.7,0.2-0.9,0.5-1.2c5.4-3.9,10.8-7.8,16.2-11.8c3.2-2.3,6.4-4.6,9.6-7
		C320.1,173.2,320.6,173.1,321.3,173.7z M306.2,249.5c-1.7-1.2-3.4-2.5-5.1-3.7c-4.1-2.9-8-6-12.2-8.7c-0.1,0-0.1-0.1-0.2-0.1
		c-1.9-1.5-1.9-1.5,0.1-2.9c0.6-0.4,1-0.4,1.5,0c4.8,3.5,9.7,7,14.5,10.5c2,1.5,4,2.9,6,4.4c0.7,0.6,1.2,1.2,1.2,2.2
		c0.1,0.5-0.4,0.9-0.9,1.2c-4.3,3.1-8.7,6.3-13,9.4c-2.4,1.7-4.8,3.5-7.2,5.2c-0.4,0.3-0.7,0.8-1.2,0.4c-0.7-0.5-1.6-0.8-2-1.7
		c-0.2-0.6,0.3-0.8,0.7-1c3.2-2.4,6.5-4.8,9.7-7.1c2.7-2,5.4-3.9,8.2-5.9C307.5,250.9,307.4,250.4,306.2,249.5z M306.2,211.5
		c-5.5-4-11.1-8-16.6-12c-0.6-0.4-1.1-0.9-1.6-1.3c-0.9-0.8-0.9-0.9,0.1-1.6c1.4-1,1.4-1,2.7,0c6.6,4.8,13.2,9.6,19.8,14.4
		c0.5,0.1,1.1,0.4,0.8,1.1c0.3,0.6-0.1,0.9-0.5,1.2c-6.8,5-13.7,9.9-20.5,14.9c-0.7,0.5-2.8-0.3-3-1.1c-0.1-0.4,0.3-0.5,0.5-0.7
		c3.1-2.7,6.6-5,9.9-7.4c2.8-2.1,5.6-4.1,8.4-6.1C307,212.3,307,212,306.2,211.5z M318.8,231.4c0,2.2-1.8,3.9-4,3.8
		c-2.1,0-3.8-1.9-3.8-4c0.1-2.1,1.9-3.9,3.9-3.8C317,227.4,318.8,229.3,318.8,231.4z M316.6,189.5c0.1-2,1.9-3.8,4-3.7
		s3.9,1.9,3.8,4s-2,3.9-4,3.8C318.2,193.4,316.5,191.5,316.6,189.5z M314,218.8c-5.2,3.7-10.4,7.5-15.6,11.2c-1.1,0.8-1.1,0.8,0,1.6
		c5.2,3.7,10.3,7.5,15.5,11.2c0.9,0.7,0.9,1.1,0.2,1.9c-1.1,1.3-1.1,1.3-2.5,0.3c-6-4.3-12-8.6-17.9-13c-0.9-0.7-1-1.7-0.1-2.4
		c5.4-3.9,10.9-7.8,16.3-11.8c0.9-0.6,1.7-1.2,2.6-1.9c0.3-0.1,0.5-0.2,0.7-0.3c0.6,0,0.8,0.5,1.1,0.9
		C315.4,217.8,315.4,217.8,314,218.8z M290.1,285.9c2.1,0,3.9,1.8,3.8,3.9c0,2.2-1.7,3.9-3.9,3.9s-3.8-1.7-3.8-3.9
		S288,285.8,290.1,285.9z M288.5,303.8c4.7-3.4,9.4-6.8,14-10.2c1.5-1.1,2.9-2.2,4.4-3.2c0.8-0.6,0.6-0.8,0-1.3
		c-4.8-3.4-9.5-6.9-14.3-10.3c-1.5-1.1-2.9-2.1-4.3-3.3c-0.5-0.5-0.6-0.7,0-1.2c2.1-1.4,1.3-1.6,3.4,0c6.5,4.7,13,9.4,19.6,14.1
		c0.4,0.4,0.9,0.7,0.6,1.4c0.3,0.6-0.1,0.9-0.5,1.2c-6.8,4.9-13.6,9.9-20.4,14.8c-0.8,0.5-3-0.3-3.2-1.2
		C287.7,304.1,288.2,304,288.5,303.8z M294.2,271.5c-0.5-0.2-0.9-0.5-0.6-1.1c-0.1-0.4-0.2-0.7,0.1-0.9c1-0.7,1.7-1.7,2.7-2.5
		c5.1-3.9,10.4-7.6,15.6-11.4c1.3-0.9,3.3-0.1,3.6,1.5c0.1,0.5-0.4,0.7-0.7,0.9c-3.8,2.7-7.5,5.4-11.3,8.1c-1.6,1.1-3.2,2.3-4.7,3.4
		c-1.1,0.8-1.1,0.8,0,1.6c5.2,3.7,10.3,7.5,15.5,11.2c0.5,0.4,1.3,0.6,0.6,1.5c-1.2,1.6-1.3,1.7-2.4,1
		C306.5,280.4,300.3,276,294.2,271.5z M311.5,270.6c0-2,1.9-3.8,3.9-3.8c2.1,0,3.9,1.9,3.9,3.9c0,2.2-1.7,3.9-3.9,3.9
		C313.3,274.6,311.5,272.8,311.5,270.6z M320.5,310.5c2.1,0,4,1.8,4,3.9s-1.7,3.8-3.8,3.9c-2.1,0-3.9-1.8-3.9-3.9
		S318.5,310.5,320.5,310.5z M308.9,174.9c0.9-0.7,1.5-0.6,2,0.4c0.1,0.2,0.2,0.4,0.4,0.5c0.6,0.6,0.4,1-0.3,1.5
		c-2.9,2.1-5.9,4.2-8.8,6.3c-3.9,2.8-7.7,5.6-11.6,8.4c-0.2,0.2-0.5,0.4-0.8,0.5c-0.4,0-2.3-1.3-2.3-1.6c-0.1-0.5,0.3-0.6,0.6-0.8
		c2.6-1.9,5.2-3.9,7.8-5.8C300.2,181.2,304.6,178.1,308.9,174.9z M289.8,172.2c2.2,0,3.9,1.7,3.9,3.9c0,2.1-1.8,3.8-3.9,3.8
		c-2,0-3.8-1.8-3.8-3.8C285.8,174,287.6,172.2,289.8,172.2z M289.5,208.2c2.2,0,3.9,1.8,3.9,3.9c0,2.2-1.7,3.9-3.8,4
		c-2.1,0-4-1.8-4-4C285.6,210,287.4,208.2,289.5,208.2z M289.3,246.4c1.5-0.1,3.3,0.9,3.7,2.4c0.3,0.9,1,1.7,0.8,2.8
		c-0.3,2-1.7,3.3-3.8,3.3c-0.6,0-1.3-0.2-1.9-0.5c-0.7-0.4-1.3-1-1.6-1.8c-0.3-1.1-0.8-2.2-0.7-3.3
		C286.1,247.7,287.6,246.5,289.3,246.4z M289.9,328.4c-2.1,0-3.9-1.8-3.9-3.9c0-2,1.8-3.8,3.8-3.8c2.1-0.1,4,1.7,4,3.8
		C293.8,326.6,292,328.4,289.9,328.4z M311.5,326.3c-1.7,2.2-1.1,1.9-3,0.5c-6.2-4.5-12.4-9-18.6-13.5c-0.7-0.5-1.3-1-1.9-1.5
		c-0.2-0.2-0.5-0.4-0.2-0.6c0.5-0.6,1.2-1.1,2.1-1.5c0.3,0.2,0.5,0.3,0.8,0.4c6.9,5,13.7,10,20.6,14.9
		C311.9,325.4,312,325.7,311.5,326.3z M321.4,328.5c-0.6,0.4-1,0.4-1.6,0c-6.9-5-13.8-9.9-20.6-15c-1.8-1.3-3.6-2.6-5.3-4
		c-0.5-0.1-1-0.4-0.7-1c0-0.9,1.3-2.2,2.4-2.3c0.7-0.1,1.2-0.4,1.7-0.7c4.9-3.6,9.8-7.1,14.7-10.7c0.4-0.3,0.8-0.9,1.3-0.6
		c0.7,0.4,1.3,1.1,1.6,1.9c0.2,0.3-0.2,0.5-0.4,0.7c-4.5,3.3-8.9,6.5-13.4,9.8c-0.8,0.6-1.9,0.5-2.7,1.2c-0.7,0.6-0.8,0.9,0,1.4
		c4,2.9,8,5.7,11.9,8.6c3.1,2.2,6.1,4.5,9.1,6.8c0.9,0.7,1.5,0.6,2.3-0.1c6.1-4.5,12.2-8.9,18.3-13.3c0.3-0.2,0.7-0.8,1.1-0.4
		c0.6,0.6,1.3,1.2,1.5,2.1c0.1,0.4-0.5,0.5-0.7,0.7c-5.7,4.2-11.5,8.3-17.2,12.5C323.6,326.9,322.5,327.7,321.4,328.5z M350.8,328.4
		c-2.1,0-3.9-1.8-3.9-3.9s1.8-3.9,3.9-3.9c2,0,3.9,1.9,3.9,3.9C354.7,326.6,352.8,328.4,350.8,328.4z M372.7,325.9
		c-0.4,0.8-0.8,1.6-1.6,2c-0.3,0.2-0.6-0.2-0.9-0.5c-6.2-4.5-12.3-8.9-18.5-13.4c-0.3-0.1-0.6-0.2-0.8-0.4c-0.6,0-0.9,0.4-1.3,0.6
		c-6,4.4-12.1,8.7-18.1,13.1c-0.4,0.3-0.8,0.9-1.3,0.6c-0.7-0.5-1.2-1.3-1.5-2.1c-0.1-0.4,0.4-0.6,0.7-0.8c5-3.6,10-7.2,15-10.8
		c1.9-1.3,3.7-2.7,5.6-4c0.6-0.4,1.1-0.5,1.7,0c6.7,4.9,13.5,9.8,20.2,14.7C372.3,325.2,373,325.4,372.7,325.9z M381.8,328.9
		c-0.5,0.4-1,0.5-1.6,0c-6.8-5-13.7-10-20.6-15c-0.8-0.6-1.1-1-0.3-1.8c0.2-0.2,0.3-0.4,0.4-0.6c0.4-0.7,0.8-0.8,1.5-0.3
		c3.6,2.7,7.3,5.3,11,8c2.6,1.9,5.2,3.7,7.8,5.7c0.7,0.5,1.2,0.5,1.9,0c6.1-4.4,12.2-8.8,18.3-13.3c0.9-0.7,1.4-0.6,1.9,0.4
		c0.3,0.4,0.7,0.7,0.9,1.2c-0.1,0.4-0.4,0.6-0.7,0.8c-5.3,3.9-10.6,7.7-16,11.6C384.8,326.7,383.3,327.8,381.8,328.9z M411,330.3
		c-2.1,0-3.9-1.8-3.9-3.9c0.1-2.2,1.9-3.8,4-3.8s3.9,1.9,3.8,3.9C414.8,328.5,413.1,330.2,411,330.3z M431.5,328.2
		c-0.3,0.3-0.7-0.2-1-0.4c-6.1-4.4-12.3-8.9-18.3-13.3c-0.9-0.6-1.4-0.7-2.4-0.1c-6,4.4-12,8.7-18,13.1c-0.4,0.3-0.8,0.9-1.3,0.6
		c-0.7-0.5-1.2-1.2-1.5-2c-0.2-0.4,0.4-0.6,0.7-0.8c4.4-3.2,8.9-6.5,13.3-9.7c2.3-1.7,4.7-3.4,7-5.1c0.7-0.6,1.3-0.6,2,0
		c6.8,5,13.6,9.9,20.4,14.8c0.3,0.2,0.7,0.3,0.7,0.9C432.6,326.9,432.2,327.7,431.5,328.2z M442,328.8c-0.5,0.4-1,0.5-1.6,0
		c-6.9-5-13.7-10-20.6-14.9c-0.7-0.5-0.8-0.9-0.2-1.6c0.2-0.2,0.4-0.5,0.5-0.7c0.4-0.7,0.9-0.8,1.6-0.3c6.2,4.5,12.4,9,18.6,13.5
		c0.7,0.5,1.2,0.5,1.8,0c6-4.4,12.1-8.8,18.1-13.1c1.3-0.9,1.3-0.9,2.3,0.4c0.3,0.4,0.5,0.7,0.7,0.9c0,0.6-0.4,0.7-0.7,0.9
		c-5.8,4.2-11.6,8.5-17.5,12.7C444,327.3,443,328.1,442,328.8z M471.3,330.2c-2.1,0-3.8-1.7-3.8-3.8c0-2.2,1.7-3.9,4-3.8
		c2,0,3.7,1.7,3.7,3.8C475.2,328.6,473.5,330.2,471.3,330.2z M491.9,328.1c-0.5,0.5-0.9-0.2-1.3-0.5c-6.1-4.4-12.3-8.9-18.4-13.3
		c-0.7-0.5-1.2-0.5-1.9,0c-6.1,4.5-12.2,8.9-18.4,13.3c-0.4,0.3-0.7,0.8-1.2,0.4c-0.6-0.6-1.2-1.2-1.4-2.1c-0.1-0.3,0.4-0.5,0.6-0.7
		c5.1-3.7,10.3-7.5,15.4-11.2c1.7-1.3,3.5-2.5,5.2-3.8c0.5-0.4,0.9-0.4,1.5,0c6.9,5,13.7,10,20.6,15c0.3,0.3,0.7,0.4,0.7,0.9
		C493,326.8,492.5,327.6,491.9,328.1z M500.4,328.5c-6.7-4.9-13.4-9.7-20.1-14.6c-0.9-0.6-1-1.1-0.3-1.9c0.5-0.2,0.6-0.9,1.3-1.1
		c0.3,0.2,0.6,0.3,0.8,0.5c6,4.3,12,8.7,17.9,13c1.7,1.2,1.3,1.2,3,0c6-4.4,12-8.7,18-13.1c0.6-0.5,1-0.4,1.4,0.2
		c1.2,1.7,1.3,1.7-0.4,2.9c-6.5,4.7-13,9.4-19.4,14.1C501.8,329.1,501.2,329.1,500.4,328.5z M532.2,330.3c-2.1,0-3.9-1.8-3.9-3.8
		c0-2.2,1.8-3.9,3.9-3.9c2.2,0,3.9,1.7,3.8,3.9C536,328.5,534.2,330.3,532.2,330.3z M553.8,326.9c-1.2,1.6-1.2,1.6-2.8,0.4
		c-6-4.4-12-8.7-18-13.1c-0.3-0.1-0.6-0.3-0.9-0.5c-0.3,0.2-0.5,0.3-0.8,0.5c-6.2,4.5-12.4,8.9-18.5,13.5c-0.9,0.6-1.3,0.5-1.8-0.3
		c-0.1-0.2-0.3-0.4-0.5-0.6c-0.6-0.6-0.4-1,0.3-1.5c2.9-2.1,5.8-4.2,8.7-6.3c3.9-2.8,7.8-5.7,11.7-8.5c0.5-0.4,0.9-0.6,1.6-0.2
		c6.9,5,13.8,10,20.7,15C554.2,325.8,554.3,326.2,553.8,326.9z M563.1,328.8c-0.6,0.5-1.1,0.5-1.8,0c-6.8-5-13.6-9.9-20.4-14.8
		c-0.3-0.2-1-0.5-0.7-1c0.4-0.8,0.8-1.6,1.6-2c0.3-0.2,0.7,0.3,0.9,0.5c6.1,4.4,12.2,8.8,18.3,13.2c0.9,0.6,1.4,0.6,2.3,0
		c5.9-4.4,11.9-8.7,17.9-13c0.4-0.3,0.9-1,1.4-0.6c0.7,0.6,1.1,1.4,1.5,2.1c-0.1,0.5-0.5,0.7-0.8,0.9c-5.1,3.7-10.2,7.4-15.3,11.1
		C566.4,326.4,564.7,327.6,563.1,328.8z M592.4,330.2c-2.1,0-3.9-1.9-3.8-3.9c0-2.1,1.8-3.8,3.9-3.7c2,0,3.8,1.8,3.8,3.8
		C596.3,328.5,594.5,330.3,592.4,330.2z M614.2,326.9c-1.2,1.7-1.2,1.7-2.9,0.5c-6-4.4-12-8.7-18-13.1c-0.6-0.4-1-0.4-1.6,0
		c-6.2,4.5-12.4,9-18.5,13.5c-0.8,0.6-1.3,0.5-1.8-0.3c-0.1-0.2-0.3-0.4-0.5-0.6c-0.6-0.7-0.4-1.1,0.3-1.6c3.8-2.7,7.5-5.4,11.3-8.2
		c3-2.2,6-4.4,9-6.6c0.2-0.3,0.5-0.5,1-0.6c0.2,0.1,0.5,0.3,0.8,0.5c5.9,4.3,11.8,8.6,17.7,12.9c1,0.7,1.9,1.4,2.9,2.1
		C614.5,325.8,614.6,326.2,614.2,326.9z M623.1,328.6c-0.3,0.3-0.5,0.5-0.7,0.5c-0.5,0-0.8-0.3-1.1-0.5c-6.8-4.9-13.5-9.8-20.3-14.7
		c-0.7-0.5-0.7-0.9-0.2-1.6c1.3-1.6,1.2-1.6,2.9-0.4c6,4.3,12,8.7,17.9,13c0.7,0.5,1.1,0.2,1.6-0.2c6.2-4.5,12.4-9,18.6-13.4
		c0.4-0.3,0.8-0.9,1.2-0.5c0.6,0.5,1.2,1.2,1.5,2c0.1,0.4-0.5,0.6-0.8,0.9c-5.8,4.2-11.5,8.4-17.3,12.5
		C625.3,327,624.2,327.8,623.1,328.6z M652.3,328.4c-2-0.1-3.8-1.9-3.8-3.9c0-2.1,1.9-3.9,3.9-3.9c2.1,0.1,4,1.9,3.9,4
		C656.3,326.7,654.4,328.5,652.3,328.4z M672.8,327.9c-0.3,0.2-0.6-0.2-0.9-0.4c-5-3.7-10.1-7.3-15.1-11c-1.2-0.9-2.4-1.7-3.6-2.6
		c-0.6-0.5-1-0.4-1.6,0.1c-5.4,4-10.9,7.9-16.3,11.8c-0.8,0.6-1.7,1.2-2.5,1.8c-0.6,0.4-0.9,0.4-1.3-0.2c-1.5-2.1-1.3-1.7,0.4-3
		c6.6-4.8,13.1-9.5,19.7-14.3c0.6-0.4,1-0.5,1.6-0.1c6.8,4.9,13.5,9.8,20.3,14.8c0.3,0.4,0.8,0.5,0.9,1.1
		C673.9,326.6,673.5,327.4,672.8,327.9z M683.5,328.4c-0.6,0.4-1,0.5-1.6,0c-6.9-4.7-13.6-9.7-20.3-14.6c-0.4-0.3-1.1-0.5-0.8-1.1
		c0.3-0.8,0.8-1.5,1.5-2c0.3-0.2,0.7,0.2,1,0.4c4.6,3.3,9.2,6.7,13.8,10c1.7,1.2,3.4,2.3,5.1,3.5c0.6,0.4,0.9,0.1,1.4-0.2
		c7-5.1,13.9-10.2,20.9-15.3c1.6-1.2,1.6-1.3,0-2.1c-2.7-1.4-5-3.4-7.4-5.2c-2.5-1.7-4.8-3.5-7.3-5.3c-0.7-0.5-0.8-0.9-0.2-1.5
		c0.2-0.2,0.3-0.3,0.4-0.5c0.6-0.9,1.2-0.9,2.1-0.2c5,3.7,10,7.3,15,11c0.8,0.6,1.7,0.8,2.5,1.5c0.2,0.6,0.7,0.9,0.4,1.5
		c0.3,0.7-0.3,0.9-0.7,1.2c-6.6,4.8-13.2,9.7-19.8,14.5C687.5,325.5,685.5,326.9,683.5,328.4z M694.1,327.3
		c-0.9,0.7-1.4,0.6-1.9-0.3c-0.1-0.2-0.2-0.4-0.4-0.5c-0.5-0.6-0.5-1,0.2-1.5c5.4-3.9,10.7-7.7,16-11.6c1.6-1.1,3.1-2.3,4.7-3.4
		c0.6-0.5,2.8,0.6,2.9,1.3c0,0.4-0.3,0.5-0.6,0.7c-2.7,2-5.3,4-8,5.9C702.7,321,698.4,324.1,694.1,327.3z M713.3,328.2
		c-2.1,0-3.9-1.8-3.9-3.9c0-2,1.8-3.8,3.8-3.8s3.9,1.8,3.9,3.9C717.2,326.4,715.4,328.2,713.3,328.2z M713.8,293.5
		c-2.1,0-3.9-1.7-3.9-3.8c0-2.2,1.9-4,4-4c2.1,0,3.8,1.8,3.8,4C717.7,291.7,716,293.5,713.8,293.5z"/>
</g>
</svg>
