<?xml version="1.0" encoding="utf-8"?>
<!-- Generator: Adobe Illustrator 27.3.1, SVG Export Plug-In . SVG Version: 6.00 Build 0)  -->
<svg version="1.1" id="Layer_1" xmlns="http://www.w3.org/2000/svg" xmlns:xlink="http://www.w3.org/1999/xlink" x="0px" y="0px"
	 viewBox="0 0 464 191" style="enable-background:new 0 0 464 191;" xml:space="preserve">
<style type="text/css">
	.st0{opacity:0.7;}
</style>
<g class="st0">
	<path d="M199.6,137.8c-2.6,2-2.1,5.9,0.8,7.2c2.2,0.9,4.4,0.9,6.5-0.1c2.5-1.3,4.2-3.3,5.7-5.6c0.5-0.8,0.9-1.4,1.9-1.5
		c-2.7-0.8-5.3-1.4-8-1.7C204,135.8,201.6,136.2,199.6,137.8z"/>
	<path d="M275.2,50.2c0.2-0.2,0.3-0.5,0.2-0.8c-0.2-0.3-0.5-0.3-0.8-0.3c-2.4,0.1-5.2,2.3-6,5c2.1-0.9,4.1-1.7,5.8-3
		C274.7,50.9,275,50.5,275.2,50.2z"/>
	<path d="M279.6,124.7c0.2,1.6,0.9,2.3,2.5,2.4c1.7,0,3.2-0.5,4.7-1.2c2.7-1.4,4.9-3.5,6.9-5.9c1.3-1.5,2.3-3.1,1.7-5.2
		c-0.1-0.5,0-1,0.1-1.5c0.6-8.8,3.9-16.3,10.4-22.3c3.2-3,7.2-5,11.9-5c0.4,0,0.8,0,1.2,0c4.1,0.3,7.3,2,9.1,5.8
		c1.5,3.1,0.9,6.2-0.4,9.2c-2.5,5.8-7.1,9.3-13.2,10.8c-3.8,0.9-7.6,1-11.2-0.9c-0.7-0.4-0.8,0.1-0.9,0.5c-0.8,3.1-1,6.1,0.2,9.1
		c1.9,5.1,6.5,7.9,11.8,6.9c5.2-1,9.6-3.8,13.7-7.2c0.4-0.4,0.6-0.8,0.7-1.4c1.2-5.1,2.7-10.1,4.3-15c1.8-5.8,3.8-11.5,5.9-17.2
		c0.3-0.9,0.3-1.3-0.8-1.6c-4.2-1-8.5-1.3-12.8-1.8c-3.3-0.4-6.6-0.3-9.9-0.5c-6-0.3-12,0.1-18,0.4c-0.7,0-1.2,0.4-1.5,1
		c-3.6,7-7.3,14-10.5,21.2c-2.2,4.9-4.3,9.8-5.5,15.1C279.7,121.8,279.4,123.2,279.6,124.7z"/>
	<path d="M244.5,45c0.2,0,0.6-0.1,1-0.2c2.4-0.6,4-2,5.1-4.2c0.2-0.5,0.4-1,0-1.5s-0.9-0.4-1.4-0.3c-0.8,0.2-1.5,0.6-2.2,1.1
		c-1.4,1.2-2.4,2.7-3.3,4.3C243.3,45,243.6,45.1,244.5,45z"/>
	<path d="M270.1,87.6c-0.4,1.7,0.1,3.5,0.4,5.1c0.2,6.3,1.8,12.4,2.6,18.6c1.1-3.6,2.1-7.1,3.4-10.6c1.8-4.9,3.7-9.8,5.8-14.6
		c0.2-0.3,0.6-0.7,0.2-1.1c-0.3-0.3-0.7,0-1,0c-4,0.8-7.9,0.6-11.6-1.4c-0.1-0.1-0.3-0.2-0.4-0.3C270.3,84.6,270.5,86,270.1,87.6z"
		/>
	<path d="M318.1,98.7c0.6-2-0.5-3.2-2.6-2.9c-1.6,0.3-3.1,1-4.4,1.9c-3,2.2-4.8,5.2-6.5,8.4c-1,1.7-1,1.7,1,1.7
		C310.7,107.8,316.7,103.5,318.1,98.7z"/>
	<path d="M253.8,110.7c-1.1,4.1-2.6,8-5,11.5c-0.8,1.2-0.8,1.3,0.6,1.6c3.8,0.8,7.3,0,10.5-2.3c1.9-1.4,3.1-3.3,3.6-5.7
		c0.4-2-0.1-3.9-0.5-5.8c-0.9-4-2.3-7.8-3.5-11.6c-0.6-1.7-1.1-3.5-1.7-5.4c-4,5.3-7.8,10.6-11.7,15.9c2.1-0.1,4-0.4,5.9-0.4
		C253.7,108.5,254.3,109,253.8,110.7z"/>
	<path d="M245,119.6c1.9-2,3.6-4.2,5-6.6c0.3-0.6,0.7-1.1,0.8-1.8c-2.2,0.4-4.2,0.9-6.1,1.8c-3,1.5-3.6,3.8-1.6,6.5
		C243.8,120.5,244.1,120.6,245,119.6z"/>
	<path d="M373.2,108.7c0.4,0.1,0.7,0.1,0.8,0.1c2.4-0.1,4.5-0.7,6.4-1.8c2.9-1.8,5.4-4.1,6.4-7.5c0.6-1.8-0.3-2.8-2.1-2.8
		c-1.5,0-2.8,0.6-4,1.4c-3.7,2.4-5.9,6-7.9,9.8C372.5,108.4,372.7,108.7,373.2,108.7z"/>
	<path d="M0,0v191h464V0H0z M427.1,135.8c6.1,4.4,12.2,8.8,18.3,13.3c1.1,0.8,1.1,0.8,0,1.6c-1.7,1.3-1.3,1.3-3,0
		c-6.5-4.7-12.9-9.3-19.4-14c-0.5-0.4-1.5-0.6-1-1.6c-0.3-0.6,0.1-0.9,0.5-1.2c6.8-5,13.7-9.9,20.5-14.9c0.7-0.5,2.8,0.3,3,1.2
		c0.1,0.5-0.3,0.6-0.6,0.8c-2.5,2.1-5.3,3.9-7.9,5.9c-3.5,2.5-6.9,5-10.4,7.5C426.3,135,426.4,135.2,427.1,135.8z M426.8,58.3
		c5.2,3.8,10.5,7.6,15.7,11.4c1,0.7,1.9,1.5,2.8,2.3c0.4,0.3,0.5,0.6,0,0.9c0,0-0.1,0-0.1,0.1c-1.7,1.4-1.7,1.4-3.5,0.1
		c-6.5-4.7-12.9-9.3-19.4-14c-1.4-1-1.3-1.8,0-2.8c6.7-4.9,13.4-9.7,20.2-14.6c0.3-0.5,0.6-0.6,0.8-0.7c0.4,0,2.2,1.3,2.2,1.5
		c0.1,0.4-0.3,0.6-0.5,0.8c-1.7,1.6-3.7,2.9-5.6,4.3c-4.2,3.1-8.4,6.1-12.6,9.2C425.8,57.6,425.8,57.6,426.8,58.3z M439.1,74.9
		c0.4,0.2,1.1,0.5,0.7,1.3c0.3,0.6-0.1,0.9-0.5,1.2c-6.2,4.5-12.4,9-18.7,13.5c-0.5,0.4-0.8,0.3-1.2-0.2c-1.6-1.6-1.6-1.7,0.2-3
		c5-3.6,10-7.3,15.1-10.9c0.8-0.6,0.8-0.9,0-1.4c-5.4-3.8-10.7-7.7-16.1-11.5c-0.9-0.6-0.9-1-0.2-1.8c1.2-1.3,1.1-1.4,2.6-0.3
		C427,66.2,433.1,70.5,439.1,74.9z M421.8,76.7c0,2.2-1.7,3.8-3.9,3.8s-3.8-1.7-3.8-3.9c0-2.1,1.7-3.9,3.8-3.9
		C420.1,72.7,421.8,74.5,421.8,76.7z M412.5,38.9c-2.2,0-3.9-1.8-3.8-4c0.1-2,1.9-3.8,3.9-3.7c2-0.1,3.7,1.8,3.7,3.9
		C416.3,37.2,414.5,38.9,412.5,38.9z M412.5,155.8c2.2,0,4,1.7,3.9,3.9c0,2-1.8,3.8-3.9,3.8s-3.9-1.8-3.9-3.9
		C408.7,157.6,410.5,155.8,412.5,155.8z M414.6,116.1c0-2.1,1.8-4,3.8-3.9c2.1,0,4,1.9,4,3.9c0,2.1-1.9,4-4,3.9
		C416.3,120,414.6,118.2,414.6,116.1z M420,127.5c5-3.6,10-7.3,15.1-10.9c1-0.7,1-0.8,0-1.5c-5.3-3.8-10.6-7.7-16-11.5
		c-0.8-0.6-1-1.1-0.2-1.8c0.2-0.1,0.3-0.3,0.4-0.5c0.9-1,1.4-1.1,2.4-0.3c4.2,3.1,8.4,6.1,12.6,9.2c0.8,0.6,1.5,1.2,2.3,1.7
		c1.4,0.7,2,2.3,3.4,3c0.4,0.1,0.4,0.5,0.3,0.9c0.2,0.6-0.1,0.9-0.5,1.2c-6.2,4.4-12.3,8.9-18.5,13.4c-0.7,0.5-1.2,0.4-1.6-0.2
		C418.4,128.5,418.2,128.8,420,127.5z M445.4,111.9c-1.8,1.2-1.2,1.3-2.9,0.1c-6.6-4.7-13.1-9.5-19.7-14.2c-1.1-0.8-0.9-1.8-1.4-2.7
		c-0.2-0.3,0.3-0.5,0.5-0.6c6.9-5,13.9-10,20.8-15.1c0.4-0.3,0.8-0.4,1.2,0c2.3,1.7,2.5,1.4,0,3.1c-5.6,4-11.1,8.1-16.7,12
		c-0.3,0.3-0.8,0.6-1.2,1c0.8,0.1,0.7,1,1.3,1.4c6.1,4.3,12.1,8.8,18.1,13.1C446.5,110.8,446.6,111.1,445.4,111.9z M441.1,99.1
		c-1.1-1.1-1.8-4-1.2-5.2c0.7-1.4,1.9-2,3.5-2.2c0.3,0.1,0.7,0.1,1,0.2c2.5,0.7,4,4.2,2.8,6.4C446,100.5,442.8,100.9,441.1,99.1z
		 M443.4,61.4c-2.1,0-4-1.8-4-3.9c0-2.1,1.8-3.9,4-3.9c2.1,0,3.9,1.8,3.9,3.9C447.3,59.6,445.5,61.4,443.4,61.4z M443.2,17.5
		c2.1,0,3.9,1.8,3.9,3.9c0,2-1.8,3.8-3.8,3.9c-2,0-4-1.9-3.9-3.9C439.3,19.3,441.1,17.5,443.2,17.5z M421.3,21.7
		c0.3-0.8,0.8-1.5,1.5-2c0.1-0.1,0.2-0.1,0.3-0.1c0.2,0.1,0.3,0.2,0.5,0.3c7,5.1,14,10,20.9,15.3c1.2,0.9,1.1,0.9,0,1.9
		c-1,0.8-1.7,0.7-2.7,0c-6.5-4.8-13.1-9.5-19.6-14.2C421.8,22.6,421,22.4,421.3,21.7z M411.6,18.9c0.6-0.5,1.1-0.6,1.8,0
		c7.4,5.4,14.9,10.8,22.3,16.2c1.2,0.9,2.4,1.7,3.6,2.6c0.4,0.4,0.8,0.6,0.5,1.2c0.4,0.7-0.2,1-0.6,1.3c-6,4.3-12,8.7-17.9,13
		c-0.6,0.5-1,0.4-1.5-0.2c-1.6-2-1.4-1.5,0.3-2.8c4.9-3.6,9.8-7.1,14.7-10.7c0.6-0.4,0.8-0.6,0.1-1.2c-7.2-5.1-14.3-10.3-21.4-15.5
		c-0.8-0.6-1.3-0.5-2,0.1c-5.9,4.4-11.8,8.7-17.7,13c-0.4,0.3-0.7,0.5-1.1,0.8c-0.4,0.3-0.7,0.2-0.9-0.2c0,0,0-0.1-0.1-0.1
		c-1.5-1.8-1.5-1.8,0.4-3.2c5.1-3.7,10.2-7.4,15.3-11.1C408.8,21.1,410.2,20,411.6,18.9z M382.3,17.7c2.2,0,3.8,1.7,3.8,3.9
		c0,2.1-1.7,3.8-3.8,3.8c-2.2,0-3.8-1.6-3.8-3.8C378.5,19.3,380.1,17.7,382.3,17.7z M360.2,21.7c0.3-0.8,0.8-1.5,1.5-2
		c0.3-0.2,0.7,0.2,1,0.4c6.2,4.5,12.4,8.9,18.5,13.5c0.8,0.6,1.3,0.5,2-0.1c6.1-4.5,12.2-8.9,18.4-13.4c0.7-0.5,1.2-0.5,1.6,0.2
		c0.1,0.3,0.3,0.5,0.5,0.7c0.6,0.7,0.4,1.1-0.3,1.6c-3.1,2.2-6.2,4.5-9.3,6.8c-3.6,2.6-7.3,5.3-10.9,7.9c-0.3,0.4-0.6,0.7-1.1,0.7
		c-0.2-0.1-0.5-0.3-0.7-0.5c-6.8-4.9-13.5-9.8-20.3-14.7C360.7,22.5,360,22.3,360.2,21.7z M352.9,19.1c6.8,5,13.7,9.9,20.5,14.9
		c0.4,0.2,0.8,0.4,0.9,0.9c-0.3,0.7-0.8,1.4-1.5,2c-0.5,0.4-0.9-0.2-1.2-0.4c-6-4.4-12.1-8.7-18.1-13.1c-1-0.7-1.6-0.7-2.6,0
		c-6,4.5-12.1,8.8-18.2,13.2c-0.7,0.5-1.1,0.5-1.6-0.3c-0.2-0.3-0.4-0.6-0.6-0.8c-0.5-0.6-0.4-1,0.2-1.4c6.9-5,13.7-10,20.6-15
		C351.9,18.7,352.3,18.7,352.9,19.1z M356.1,35.1c0,2.1-1.8,3.9-3.9,3.9c-2,0-3.8-1.8-3.9-3.8c0-2.1,1.7-3.9,3.8-4
		C354.2,31.2,356.1,33,356.1,35.1z M322.1,17.8c2.1,0,3.7,1.7,3.7,3.8c0,2.2-1.7,3.8-3.9,3.8c-2.1,0-3.7-1.8-3.7-3.9
		C318.2,19.3,319.9,17.7,322.1,17.8z M300.4,21c1.2-1.5,1.1-1.6,2.7-0.4c6,4.4,12.1,8.7,18.1,13.1c0.6,0.4,1,0.4,1.5,0
		c6.1-4.5,12.2-8.9,18.4-13.3c0.4-0.3,0.8-0.9,1.3-0.5c0.7,0.5,1.2,1.3,1.5,2c-0.1,0.5-0.5,0.7-0.8,0.9c-4.1,3-8.2,5.9-12.3,8.9
		c-2.6,1.9-5.3,3.8-7.9,5.7c-0.7,0.6-1.3,0.6-2,0c-6.8-4.9-13.5-9.8-20.3-14.7C299.8,22.1,299.8,21.7,300.4,21z M291.4,19
		c0.4-0.3,0.7-0.2,1.1,0c1.6,1.2,3.3,2.4,4.9,3.6c5.2,3.8,10.4,7.6,15.7,11.4c0.4,0.2,0.8,0.3,0.9,0.9c-0.4,0.7-0.8,1.5-1.5,2
		c-0.5,0.4-0.9-0.3-1.3-0.5c-5.8-4.2-11.6-8.4-17.4-12.6c-1.4-1-1.9-2.7-2.7-4.1C290.9,19.4,291.2,19.2,291.4,19z M185.1,41.3
		c2.6-8.8,7.8-15.7,15.7-20.4c5.3-3.2,11.1-4.2,17.3-2.7c1.8,0.4,3.5,1.2,4.8,2.6c1.1,1.3,1.2,2.1,0.3,3.6c-2.2,3.4-3.9,7-4.5,11.1
		c-0.2,1.3-0.6,1.5-1.9,1.2c-2.4-0.6-4.1-1.9-4.7-4.4c-0.2-0.9,0-1.7,0.2-2.5c0.5-1.6,1.2-3.1,2-4.6c0.5-0.9,0.4-1.1-0.6-1.2
		c-1.9-0.2-3.9,0-5.7,0.7c-9.7,3.9-16,10.8-18.6,21c-0.6,2.3-0.5,4.7-0.2,7c0.6,3.6,2.8,5.6,6.5,5.7c4.3,0.2,8.1-1.1,11.7-3.3
		c4.6-2.8,7.7-6.9,10.2-11.7c3.3-6.3,5.1-13.1,8.1-19.6c0.8-1.7,1.3-3.5,1.8-5.3c0.1-0.4,0.2-0.9,0.8-0.6c1.5,0.7,3.1,1.3,4.2,2.6
		c0.6,0.8,0.8,1.6,0.6,2.6c-0.2,1.1-0.7,2.2-1.2,3.2c-3.3,6.6-6.6,13.2-9.4,20c-1.4,3.2-2.6,6.2-3.1,9.4c1.8-2.8,3.5-5.7,5.3-8.5
		c2.3-3.6,4.8-7.1,7.4-10.5c0.6-0.8,1.2-1.5,1.4-2.5c0.1-0.5,0.4-0.6,0.8-0.3c1.2,0.8,2.3,1.6,3.1,2.8c0.9,1.3,0.6,2.5,0,3.8
		c-1,2-2.3,3.9-3.3,5.9c-1.1,2.1-2,4.2-1.9,6.6c0.1,1.9,1.1,2.5,2.8,1.5c1.4-0.9,2.5-2.1,3.3-3.5c0.5-0.9,0.3-1.9,0.4-2.9
		c0.6-4.4,2.4-8.2,5.8-11.1c2-1.7,4.3-2.7,7-2.4c3.7,0.4,5.8,3.5,4.8,7.1c-1.5,5.2-7.6,8.3-12.7,6.5c-0.8-0.3-1.1-0.2-1.2,0.6
		c-0.2,1.1-0.2,2.3,0,3.4c0.9,3.5,3.8,5.1,7.2,4.1c2.2-0.7,4.1-1.8,5.9-3.2c0.4-0.3,0.7-0.7,0.7-1.2c0-1.5,0.8-2.7,1.7-3.9
		c2.7-3.8,5.9-7.1,9.7-9.9c-0.7,0.2-1.3,0.3-2,0.5s-1.4,0.3-2.1,0.5c-1.2,0.3-2.4,0.4-3.6,0.1c-1.2-0.3-1.8-1-1.9-2.3
		c0-0.8,0-1.7,0-2.5s0.4-0.9,1.1-0.7c3.7,0.9,7.5,1.2,11.3,1.2c2.6,0,5.2-0.3,7.3-2c0.5-0.4,0.7-0.2,0.9,0.3
		c0.1,0.4,0.3,0.8,0.4,1.3c0.9,3.1,0.5,4-2.3,5.5c-4.1,2.2-8.3,4.1-12,6.9c-1.1,0.8-2.2,1.8-3.1,2.9c-0.7,0.8-1.1,1.7-1.2,2.7
		c-0.2,1.4,0.4,2.6,1.7,3.2c1.2,0.6,2.5,0.7,3.8,0.5c0.6-0.1,0.9-0.4,1-1c0.7-5.3,5.6-7.5,9.8-7.6c1,0,2,0.2,2.5,1.2
		s0.1,1.9-0.5,2.7c-1.3,1.9-3.2,3.1-5.2,4.2c-1.3,0.8-2.7,1.5-4.1,2c-0.9,0.3-1.1,0.9-0.6,1.7c0.5,0.9,1.2,1.7,1.9,2.4
		c0.2,0.2,0.5,0.4,0.3,0.7c-0.3,0.4-0.6,0.1-0.9,0c-1.1-0.8-2.1-1.8-2.6-3.1c-0.3-0.7-0.6-0.7-1.3-0.6c-2.2,0.7-4.5,0.9-6.6-0.4
		c-1.1-0.7-1.9-1.6-2.5-2.8c-0.4-0.9-0.8-0.8-1.4-0.2c-2.1,2-4.5,3.4-7.5,3.8c-4.1,0.6-7.2-1.1-8.8-4.9c-0.1-0.2-0.2-0.4-0.4-0.8
		c-1,1.2-1.9,2.4-3.1,3.4c-2.8,2.2-5.8,1.6-7.5-1.5c-1.2-2.2-1.2-4.5-1-6.9c0-0.4,0.2-0.7,0-1.3c-1,1.8-2,3.5-2.8,5.2
		c-1.2,2.4-2.5,4.8-3.4,7.3c-0.5,1.6-2.1,2.6-3.6,2.4c-1.4-0.2-2.5-1.2-2.8-3c-0.4-2.3,0.2-4.5,0.6-6.7c0.1-0.6,0.3-1.3,0.4-2
		c-1.8,2.3-3.8,4.4-6.2,6.1c-3.7,2.7-7.8,4.7-12.5,5.3c-6.1,0.7-11-2.8-12.6-8.9C183.5,49,183.9,45.1,185.1,41.3z M177.9,83.2
		c1.1,0.3,1.2,0.6,0.7,1.7s-0.5,1.3,0.7,1.5c3.5,0.7,7.1,0.6,10.6,0.6c0.6,0,0.9-0.4,1.2-0.9c1.5-2.5,2.9-5.1,3.8-8
		c0.4-1.2,0.5-1.3,1.6-0.6c2,1.3,3.9,2.7,5.5,4.6c1.8,2.1,1.9,4.3,1.1,6.7c-1.1,3.1-2.8,6-4.4,8.9c-3,5.3-6.2,10.6-8,16.5
		c-0.7,2.3-1.1,4.7-1,7.2c0.2,2.4,1.4,3.2,3.7,2.4c1.5-0.5,2.7-1.5,3.9-2.5c1.3-1.2,2.2-2.6,3.3-3.8c1.2-1.3,0.9-2.9,1.1-4.4
		c0.9-6.1,2.9-12,5.3-17.7c2.4-5.9,5.6-11.4,8-17.3c0.3-0.7,0.7-0.8,1.3-0.5c2.7,1.5,5.1,3.3,6.7,5.9c0.9,1.5,1.1,3,0.4,4.7
		c-1.3,3.3-3.1,6.4-4.7,9.5c-2.5,4.7-5.1,9.3-6.9,14.4c-1.1,2.9-1.8,5.9-1.7,9.1c0.1,3.8,2.2,5.1,5.7,3.5c3.2-1.5,5.2-4.2,7-7.1
		c2.7-4.2,4.5-8.9,6-13.6c1.7-5.1,3.6-10.1,5.9-15c0.3-0.7,0.6-1.4,0.8-2.2c0.2-0.5,0.4-0.7,0.9-0.5c3,1.6,5.7,3.5,7,6.8
		c0.8,2.1,0.6,4.2-0.5,6.1c-1.5,2.7-3.1,5.4-4.5,8.1c-2.3,4.4-3.8,9-3.8,14.1c0,3,1.2,4,4.5,3.3c0.7-0.2,1-0.5,0.6-1.2
		c-0.9-1.8-1.5-3.7-1.4-5.9c0.1-3.3,1.7-5.6,4.7-6.7c0.6-0.2,0.9-0.6,1.2-1.1c3.2-5.2,6.1-10.5,9.2-15.8c1.5-2.7,3-5.3,4.6-8
		c0.3-0.5,0.4-0.9,0.5-1.4c0.3-2,0.9-3.8,2.1-5.4c0.8-1.1,1.1-1.1,2.3-0.4c1.2,0.7,2.4,1.5,3.5,2.3c0-0.1-0.1-0.1-0.1-0.2
		c-1-2-0.9-3.9,0.3-5.8c1-1.6,2.5-2.7,4.1-3.6c1-0.5,2.6-0.2,3.3,0.6c0.3,0.3,0.5,0.7,0.3,1.1c-0.3,0.4-0.7,0.4-1.1,0.2
		c-2.1-0.7-3.2-0.2-3.7,1.6c-0.6,2.1,0.2,3.6,2.1,4.3c2.2,0.7,4.3,0.3,6.5-0.1c2.7-0.5,5.3-1.2,8-1.8c0.8-0.2,1.2-0.5,1.5-1.2
		c2.3-5,4.3-10.2,6.3-15.4c0.5-1.3,0.7-1.5,1.9-0.9c3.2,1.3,5.9,3.3,7.7,6.4c1,1.7,0.9,3.5,0.3,5.2c-0.2,0.6-0.5,1.1-0.8,1.7
		c-0.1,0.2-0.3,0.4-0.1,0.7c0.2,0.2,0.4,0.1,0.6,0.1c3.8-0.4,7.7-0.9,11.6-1.1c5.6-0.3,11.1-0.4,16.7,0.1c2.2,0.2,4.5,0.6,6.7,0.9
		c1.6,0.3,3,0.8,4.3,1.7c0.7,0.5,0.9,0.3,1.2-0.4c1.6-4,3.2-8,4.9-12c1.5-3.5,2.8-7.2,3.9-10.8c0.2-0.6,0.2-1.2,0.3-1.7
		c0.1-0.7,0.5-1,1.2-0.7c2.8,1,5.3,2.6,7.4,4.7c2,2,2.4,4.3,1.3,6.9c-0.5,1.3-1.1,2.6-1.7,3.9c-5.2,10.6-10.3,21.3-15,32.2
		c-3.4,7.9-6.8,15.9-9.4,24.1c-0.8,2.6-1.6,5.3-1.8,8.1c0,0.6-0.3,1.4,0.3,1.7c0.6,0.4,1.2-0.2,1.7-0.6c2.4-1.6,4.3-3.7,6.1-5.9
		c0.4-0.5,0.7-1,1.1-1.4c1.9-1.9,2.2-4.4,2.8-6.8c2.7-10.2,6.2-20.3,9.8-30.2c3.3-8.9,6.8-17.6,10.5-26.3c1.3-3,2.5-6.2,3-9.5
		c0.1-0.7,0.5-0.9,1.2-0.7c3.1,1.3,6,2.9,8.1,5.6c1.4,1.7,1.4,3.7,0.7,5.7c-1,3-2.5,5.7-3.9,8.5c-6.8,14.1-13.5,28.3-19.1,43
		c-1.8,4.6-3.4,9.3-4.5,14.1c-0.2,1.1-0.4,2.2-0.4,3.4c0,0.5-0.2,1,0.3,1.3s1-0.1,1.4-0.4c1.8-1.2,3.4-2.7,4.8-4.4
		c1.6-1.8,3-3.7,4.4-5.5c0.6-0.7,0.8-1.5,0.7-2.5c-0.6-4.9,0.4-9.6,2.2-14.2c2.5-6.2,6.3-11.4,12.2-14.7c4.4-2.5,9-3.1,13.8-1
		c3.9,1.8,6,5.9,5.3,10.1c-1.3,7.5-7.5,13.5-15.2,14.8c-2.9,0.5-5.9,0.5-8.8-0.4c-0.2-0.1-0.5-0.2-0.7-0.3c-1.4-0.6-1.4-0.6-1.8,0.9
		c-0.8,3.1-0.7,6.2,0.7,9.2c2.2,4.9,6.8,7.2,12,5.9c6.5-1.7,11.9-5.2,16.3-10.3c0.2-0.2,0.3-0.4,0.5-0.6c0.4-0.5,0.9-1,1.6-0.5
		c0.8,0.5,0.4,1.1,0.1,1.6c-2.2,3.6-4.8,6.8-8.1,9.5c-4.3,3.4-9.2,5.3-14.8,5.3c-6,0-10.2-2.8-13-8c-0.9-1.6-0.8-1.6-1.9-0.1
		c-2.9,4.1-6,8.2-9.9,11.4c-1.5,1.3-3.2,2.2-5.3,2c-1.9-0.2-3.7-1.5-4.2-3.4c-0.5-1.7-0.8-3.4-0.5-5.2c0.1-0.3,0-0.7,0-1.3
		c-1,1.2-1.8,2.2-2.7,3.2c-1.6,1.9-3.4,3.6-5.3,5.1c-1.9,1.5-4,1.9-6.2,1c-2.3-1-3-3.1-3.1-5.4c-0.1-1.9-0.1-3.8,0.3-5.6
		c0.1-0.4,0.1-0.9,0.2-1.5c-1,0.8-1.7,1.4-2.5,2.1c-4.1,3.1-8.7,4.8-13.8,4.9c-6.5,0.1-11.1-3-13.9-8.8c-0.2-0.3-0.2-0.7-0.6-1
		c-1,1.6-2,3.1-3.3,4.4c-2.7,3-5.9,5-9.9,5.6c-4.1,0.6-7.8-0.2-10.3-3.9c-1.2-1.8-1.6-3.8-1.7-5.9c0-0.5,0-1.1,0-1.7
		c-0.5,0-0.5,0.3-0.6,0.5c-3.1,5-7.8,7.8-13.5,8.8c-4.9,0.9-9.6,0.4-13.8-2.5c-0.6-0.4-1-0.1-1.4,0.1c-2.6,1.4-5.4,1.7-8.3,1.4
		c-2-0.2-3.7-1-5.1-2.4c-0.5-0.5-0.7-0.5-1,0.2c-0.5,1-1,2-1.5,2.9c-0.3,0.5-0.1,0.8,0.4,1c3.8,0.8,7.6,1.7,11.4,2.3
		c3.7,0.6,7.5,0.9,11.2,0.8c0.6,0,0.7,0.3,0.7,0.8c-0.7,6.1-5.1,9.8-10.9,8.8c-4.9-0.8-9.7-2.3-14.4-3.7c-1-0.3-2.1-0.9-3.1-0.8
		c-1.1,0.1-1.4,1.5-2,2.3c-2.7,3.5-5.9,6.3-10.3,7.4c-3.2,0.8-6.4,0.6-9.6-0.5c-6.4-2.2-7.2-10.6-2.9-14.8c1.9-1.9,4.3-2.9,6.9-3.6
		c2.7-0.7,5.4-0.8,8.1-0.4c0.1,0,0.2,0,0.3,0c4.4,0.5,5.6-0.8,6.6-4.3c-0.3-0.1-0.4,0.2-0.6,0.3c-1.6,1.2-3.4,2.3-5.4,2.8
		c-4.3,1.2-8.2-0.5-10.4-4.5c-0.5-1-1-2.1-1.3-3.3c-0.9,1.1-1.6,2-2.4,2.9c-1.1,1.4-2.4,2.5-3.9,3.4c-5.3,3.3-10.8,1.5-13.4-4.2
		c-1.5-3.4-1.5-7-1.1-10.5c0.6-5.5,2.3-10.7,4.5-15.8c0.4-1,0.4-1.1-0.7-1c-2.7,0.4-5.4,0.4-8.1,0.3c-0.6,0-0.9,0.1-1.2,0.7
		c-1.7,3.5-3.4,7-5.1,10.5c-0.4,0.7-0.1,1.4-0.4,2.1c-2.1,5.7-4.9,11-9.3,15.3c-1.5,1.5-3.3,2.6-5.3,3.3c-3.4,1.1-6.2,0-8.5-2.5
		c-2.5-2.8-3.6-6.2-3.7-9.8c-0.2-3.2,0.2-6.3,1.1-9.5c-0.4,0.1-0.5,0.4-0.6,0.6c-3.1,5.5-6.2,11-9,16.7c-1.3,2.6-2.4,5.2-3.4,7.9
		c-1,2.8-3.4,4.4-6.2,4.4c-2.4,0-4.2-1.3-5.1-3.5c-1-2.6-0.8-5.4-0.6-8.1c0.3-3.2,1-6.3,1.8-9.3c0.1-0.2,0.2-0.5-0.1-0.8
		c-1.3,1.6-2.5,3.1-3.9,4.6c-5.2,5.7-11.4,10-18.3,13.1c-4.2,1.9-8.5,3.1-13.1,3.7c-9.9,1.1-17.7-3.6-21.8-12
		c-2.7-5.6-3.1-11.6-2.4-17.6c1.5-13.3,7.3-24.8,16.1-34.8c6.6-7.5,14.4-13.3,23.9-16.7c5.8-2,11.8-2.8,18-2.1c4,0.4,7.8,1.1,11.4,3
		c2.4,1.3,4.4,3.1,5.3,5.8c0.3,0.9,0.1,1.7-0.4,2.5c-3.8,5.9-7,12-8.7,18.8c-0.3,1.4-0.6,2.9-0.9,4.3c-0.2,0.9-0.6,1.7-1.8,1.5
		c-3.8-0.5-7.1-2-9.2-5.5c-1.6-2.7-1.6-5.4-0.6-8.3c1.1-3.2,2.5-6.2,4.2-9.2c0.6-1,0.5-1.1-0.6-1.3c-5.7-0.9-11,0.4-16,2.8
		C88.2,74,78.5,84.3,72.7,98.2c-2.9,7-3.7,14.3-2.4,21.7c0.7,3.9,2.6,7.1,6.3,8.8c2.8,1.3,5.8,1.6,8.9,1.4
		c9.3-0.6,17.4-4.3,24.6-10.1c3.8-3,6.7-6.8,9.5-10.7c2-2.8,3.8-5.8,4.9-9.1c0.4-1.2,1.5-1.8,1.9-3c4-11.6,8.7-22.9,13.3-34.3
		c1.2-3,2.4-6,2.9-9.2c0.1-0.5,0.3-0.8,0.9-0.5c2.4,1,4.7,2.1,6.8,3.7c2.2,1.8,3,3.9,2.4,6.8c-0.8,3.4-2.7,6.3-4.2,9.4
		c-6.8,13.7-13.5,27.4-18.7,41.8c-1.2,3.2-2.2,6.5-2.7,9.9c0,0.2-0.1,0.4,0.1,0.8c1.1-1.8,2.2-3.6,3.3-5.4
		c6.6-11,13.8-21.6,21.5-31.8c1.1-1.4,2.4-2.9,2.5-4.8c0-0.5,0.4-0.4,0.7-0.2c2.8,1.7,5.4,3.6,7,6.6c0.9,1.8,0.5,3.5-0.2,5.1
		c-1.4,3.5-3.6,6.6-5.4,9.9c-2,3.5-3.9,7.1-4.5,11.1c-0.3,1.9-0.3,3.7,0.1,5.6c0.3,1.5,1.2,2.1,2.7,1.8c2.7-0.4,4.5-2.3,6.3-4.1
		c2.2-2.2,3.3-5.1,4.5-7.9c2-5.1,3.8-10.2,5.2-15.5c0.2-0.9,0.1-1.5-0.6-2.1c-3.2-2.7-4.4-6.3-4-10.4c0.2-1.6,1-2.2,2.6-2.3
		c1.5-0.1,2.9,0.5,4.3,0.8C174.8,82.3,176.3,82.8,177.9,83.2z M356.2,159.8c0,2.1-1.7,3.9-3.8,3.9s-3.9-1.8-3.9-3.9s1.7-3.8,3.8-3.9
		C354.4,155.9,356.2,157.7,356.2,159.8z M296,158.2c0,2.1-1.8,3.9-3.9,3.9c-2,0.1-3.8-1.7-3.8-3.8c0-2.1,1.8-3.9,3.9-3.9
		C294.2,154.4,296,156.2,296,158.2z M235.5,158.3c0,2.1-1.8,3.9-3.9,3.9c-2.1-0.1-3.8-1.8-3.8-4c0-2.1,1.8-3.9,3.9-3.8
		C233.7,154.4,235.5,156.2,235.5,158.3z M175.2,158.4c0,2-1.9,3.8-3.9,3.8c-2.1,0-4-1.9-3.9-3.9c0.1-2.1,1.8-3.9,3.9-3.9
		C173.4,154.4,175.2,156.3,175.2,158.4z M114.6,159.7c0,2.1-1.7,3.9-3.8,3.9c-2.1,0.1-3.8-1.6-3.8-3.8s1.7-3.9,3.8-3.9
		C112.8,155.9,114.6,157.7,114.6,159.7z M106.8,35.1c0-2.1,1.8-3.8,3.9-3.8c2,0,3.8,1.8,3.8,3.8c0,2.1-1.8,3.9-3.9,3.9
		C108.6,39,106.8,37.2,106.8,35.1z M169,19.9c0.4-0.2,0.7-0.7,1.1-0.5s0.2,0.8,0.2,1.2c0.1,0.2,0,0.3,0,0.7c0.3,1.1-0.4,1.8-1.3,2.5
		c-5.9,4.2-11.7,8.5-17.5,12.7c-0.8,0.6-1.2,0.4-1.7-0.3c-1.1-1.6-1.2-1.6,0.5-2.7c6.1-4.4,12.2-8.9,18.3-13.3
		C168.7,20.1,168.8,20,169,19.9z M140.8,17.7c2.1,0,3.9,1.7,3.9,3.8c0.1,2.1-1.7,3.9-3.8,3.9c-2.2,0-3.8-1.7-3.9-3.9
		C137,19.5,138.8,17.7,140.8,17.7z M119.4,21.1c0.2-0.2,0.4-0.5,0.5-0.7c0.4-0.7,0.8-0.7,1.4-0.2c2.3,1.7,4.7,3.4,7.1,5.1
		c3.9,2.8,7.8,5.6,11.6,8.5c0.7,0.5,1.2,0.5,1.8,0c6-4.4,12.1-8.8,18.1-13.1c1.3-1,1.3-1,2.3,0.4c0.2,0.1,0.4,0.5,0.6,0.8
		c0,0.6-0.5,0.8-0.8,1c-4.4,3.2-8.7,6.3-13.1,9.5c-2.4,1.8-4.8,3.5-7.2,5.3c-0.6,0.4-1,0.4-1.6,0c-6.8-5-13.7-9.9-20.5-14.9
		C118.8,22.2,118.7,21.8,119.4,21.1z M111.5,19.1c6.8,4.9,13.6,9.8,20.3,14.7c0.5,0.4,0.9,0.6,0.9,1.1c-0.5,0.7-0.9,1.5-1.6,2
		c-0.3,0.2-0.5-0.1-0.8-0.3c-6.1-4.4-12.1-8.8-18.2-13.2c-1.5-1.1-1.5-1.1-2.9-0.1c-6,4.3-11.9,8.7-17.9,13C90.5,36.9,90,37,89.5,36
		c-0.1-0.2-0.3-0.4-0.5-0.6c-0.6-0.6-0.5-1,0.2-1.5c3.1-2.2,6.2-4.5,9.3-6.8c3.7-2.7,7.4-5.3,11-8C110.2,18.6,110.7,18.5,111.5,19.1
		z M80.8,17.7c2.1,0,3.8,1.8,3.8,4c0,2-1.8,3.7-3.9,3.7s-3.9-1.8-3.8-3.9C76.8,19.4,78.6,17.7,80.8,17.7z M59.2,20.8
		c1.1-1.4,1.1-1.4,2.5-0.4c6,4.4,12.1,8.7,18.1,13.1c0.7,0.5,1.2,0.4,1.8-0.1c6-4.4,12.1-8.8,18.2-13.2c0.4-0.3,0.8-0.9,1.3-0.5
		c0.6,0.8,1,1.5,1.5,2.1c0,0.5-0.3,0.7-0.6,0.9c-6.9,5-13.8,10-20.7,15c-0.5,0.4-0.9,0.3-1.4-0.1c-6.8-5-13.7-9.9-20.5-14.9
		C58.5,22.1,58.6,21.6,59.2,20.8z M51.3,19.2C58,24.1,64.8,29,71.5,33.9c0.4,0.3,1.1,0.5,0.8,1.1c-0.4,0.7-0.8,1.5-1.6,1.9
		c-0.3,0.1-0.6-0.2-0.9-0.4c-5-3.6-10-7.2-15-10.9c-1.2-0.9-2.5-1.8-3.7-2.7c-0.7-0.5-1.2-0.5-1.9,0c-6.2,4.5-12.3,9-18.5,13.5
		c-1,0.7-1.9,1.4-2.9,2c-0.6,0.4-0.6,0.7,0,1.1c3.7,2.6,7.4,5.3,11,8c1.6,1.1,3.1,2.3,4.7,3.4c0.5,0.3,0.6,0.7,0.2,1.2
		c-1.8,2.1-1.2,1.9-3.2,0.5c-5.7-4.1-11.4-8.3-17.1-12.4c-0.2-0.2-0.7-0.4-0.3-1c-0.3-0.7,0.2-0.9,0.5-1.2
		c5.4-3.9,10.8-7.8,16.2-11.8c3.2-2.3,6.4-4.6,9.6-7C50.1,18.7,50.6,18.6,51.3,19.2z M36.2,95c-1.7-1.2-3.4-2.5-5.1-3.7
		c-4.1-2.9-8-6-12.2-8.7c-0.1,0-0.1-0.1-0.2-0.1c-1.9-1.5-1.9-1.5,0.1-2.9c0.6-0.4,1-0.4,1.5,0c4.8,3.5,9.7,7,14.5,10.5
		c2,1.5,4,2.9,6,4.4c0.7,0.6,1.2,1.2,1.2,2.2c0.1,0.5-0.4,0.9-0.9,1.2c-4.3,3.1-8.7,6.3-13,9.4c-2.4,1.7-4.8,3.5-7.2,5.2
		c-0.4,0.3-0.7,0.8-1.2,0.4c-0.7-0.5-1.6-0.8-2-1.7c-0.2-0.6,0.3-0.8,0.7-1c3.2-2.4,6.5-4.8,9.7-7.1c2.7-2,5.4-3.9,8.2-5.9
		C37.5,96.4,37.4,95.9,36.2,95z M36.2,57c-5.5-4-11.1-8-16.6-12c-0.6-0.4-1.1-0.9-1.6-1.3c-0.9-0.8-0.9-0.9,0.1-1.6
		c1.4-1,1.4-1,2.7,0c6.6,4.8,13.2,9.6,19.8,14.4c0.5,0.1,1.1,0.4,0.8,1.1c0.3,0.6-0.1,0.9-0.5,1.2c-6.8,5-13.7,9.9-20.5,14.9
		c-0.7,0.5-2.8-0.3-3-1.1c-0.1-0.4,0.3-0.5,0.5-0.7c3.1-2.7,6.6-5,9.9-7.4c2.8-2.1,5.6-4.1,8.4-6.1C37,57.8,37,57.5,36.2,57z
		 M48.8,76.9c0,2.2-1.8,3.9-4,3.8c-2.1,0-3.8-1.9-3.8-4c0.1-2.1,1.9-3.9,3.9-3.8C47,72.9,48.8,74.8,48.8,76.9z M46.6,35
		c0.1-2,1.9-3.8,4-3.7s3.9,1.9,3.8,4s-2,3.9-4,3.8C48.2,38.9,46.5,37,46.6,35z M44,64.3c-5.2,3.7-10.4,7.5-15.6,11.2
		c-1.1,0.8-1.1,0.8,0,1.6c5.2,3.7,10.3,7.5,15.5,11.2c0.9,0.7,0.9,1.1,0.2,1.9c-1.1,1.3-1.1,1.3-2.5,0.3c-6-4.3-12-8.6-17.9-13
		c-0.9-0.7-1-1.7-0.1-2.4c5.4-3.9,10.9-7.8,16.3-11.8c0.9-0.6,1.7-1.2,2.6-1.9c0.3-0.1,0.5-0.2,0.7-0.3c0.6,0,0.8,0.5,1.1,0.9
		C45.4,63.3,45.4,63.3,44,64.3z M20.1,131.4c2.1,0,3.9,1.8,3.8,3.9c0,2.2-1.7,3.9-3.9,3.9s-3.8-1.7-3.8-3.9S18,131.3,20.1,131.4z
		 M18.5,149.3c4.7-3.4,9.4-6.8,14-10.2c1.5-1.1,2.9-2.2,4.4-3.2c0.8-0.6,0.6-0.8,0-1.3c-4.8-3.4-9.5-6.9-14.3-10.3
		c-1.5-1.1-2.9-2.1-4.3-3.3c-0.5-0.5-0.6-0.7,0-1.2c2.1-1.4,1.3-1.6,3.4,0c6.5,4.7,13,9.4,19.6,14.1c0.4,0.4,0.9,0.7,0.6,1.4
		c0.3,0.6-0.1,0.9-0.5,1.2c-6.8,4.9-13.6,9.9-20.4,14.8c-0.8,0.5-3-0.3-3.2-1.2C17.7,149.6,18.2,149.5,18.5,149.3z M24.2,117
		c-0.5-0.2-0.9-0.5-0.6-1.1c-0.1-0.4-0.2-0.7,0.1-0.9c1-0.7,1.7-1.7,2.7-2.5c5.1-3.9,10.4-7.6,15.6-11.4c1.3-0.9,3.3-0.1,3.6,1.5
		c0.1,0.5-0.4,0.7-0.7,0.9c-3.8,2.7-7.5,5.4-11.3,8.1c-1.6,1.1-3.2,2.3-4.7,3.4c-1.1,0.8-1.1,0.8,0,1.6c5.2,3.7,10.3,7.5,15.5,11.2
		c0.5,0.4,1.3,0.6,0.6,1.5c-1.2,1.6-1.3,1.7-2.4,1C36.5,125.9,30.3,121.5,24.2,117z M41.5,116.1c0-2,1.9-3.8,3.9-3.8
		c2.1,0,3.9,1.9,3.9,3.9c0,2.2-1.7,3.9-3.9,3.9C43.3,120.1,41.5,118.3,41.5,116.1z M50.5,156c2.1,0,4,1.8,4,3.9s-1.7,3.8-3.8,3.9
		c-2.1,0-3.9-1.8-3.9-3.9S48.5,156,50.5,156z M38.9,20.4c0.9-0.7,1.5-0.6,2,0.4c0.1,0.2,0.2,0.4,0.4,0.5c0.6,0.6,0.4,1-0.3,1.5
		c-2.9,2.1-5.9,4.2-8.8,6.3c-3.9,2.8-7.7,5.6-11.6,8.4c-0.2,0.2-0.5,0.4-0.8,0.5c-0.4,0-2.3-1.3-2.3-1.6c-0.1-0.5,0.3-0.6,0.6-0.8
		c2.6-1.9,5.2-3.9,7.8-5.8C30.2,26.7,34.6,23.6,38.9,20.4z M19.8,17.7c2.2,0,3.9,1.7,3.9,3.9c0,2.1-1.8,3.8-3.9,3.8
		c-2,0-3.8-1.8-3.8-3.8C15.8,19.5,17.6,17.7,19.8,17.7z M19.5,53.7c2.2,0,3.9,1.8,3.9,3.9c0,2.2-1.7,3.9-3.8,4c-2.1,0-4-1.8-4-4
		C15.6,55.5,17.4,53.7,19.5,53.7z M19.3,91.9c1.5-0.1,3.3,0.9,3.7,2.4c0.3,0.9,1,1.7,0.8,2.8c-0.3,2-1.7,3.3-3.8,3.3
		c-0.6,0-1.3-0.2-1.9-0.5c-0.7-0.4-1.3-1-1.6-1.8c-0.3-1.1-0.8-2.2-0.7-3.3C16.1,93.2,17.6,92,19.3,91.9z M19.9,173.9
		c-2.1,0-3.9-1.8-3.9-3.9c0-2,1.8-3.8,3.8-3.8c2.1-0.1,4,1.7,4,3.8C23.8,172.1,22,173.9,19.9,173.9z M41.5,171.8
		c-1.7,2.2-1.1,1.9-3,0.5c-6.2-4.5-12.4-9-18.6-13.5c-0.7-0.5-1.3-1-1.9-1.5c-0.2-0.2-0.5-0.4-0.2-0.6c0.5-0.6,1.2-1.1,2.1-1.5
		c0.3,0.2,0.5,0.3,0.8,0.4c6.9,5,13.7,10,20.6,14.9C41.9,170.9,42,171.2,41.5,171.8z M51.4,174c-0.6,0.4-1,0.4-1.6,0
		c-6.9-5-13.8-9.9-20.6-15c-1.8-1.3-3.6-2.6-5.3-4c-0.5-0.1-1-0.4-0.7-1c0-0.9,1.3-2.2,2.4-2.3c0.7-0.1,1.2-0.4,1.7-0.7
		c4.9-3.6,9.8-7.1,14.7-10.7c0.4-0.3,0.8-0.9,1.3-0.6c0.7,0.4,1.3,1.1,1.6,1.9c0.2,0.3-0.2,0.5-0.4,0.7c-4.5,3.3-8.9,6.5-13.4,9.8
		c-0.8,0.6-1.9,0.5-2.7,1.2c-0.7,0.6-0.8,0.9,0,1.4c4,2.9,8,5.7,11.9,8.6c3.1,2.2,6.1,4.5,9.1,6.8c0.9,0.7,1.5,0.6,2.3-0.1
		c6.1-4.5,12.2-8.9,18.3-13.3c0.3-0.2,0.7-0.8,1.1-0.4c0.6,0.6,1.3,1.2,1.5,2.1c0.1,0.4-0.5,0.5-0.7,0.7
		c-5.7,4.2-11.5,8.3-17.2,12.5C53.6,172.4,52.5,173.2,51.4,174z M80.8,173.9c-2.1,0-3.9-1.8-3.9-3.9s1.8-3.9,3.9-3.9
		c2,0,3.9,1.9,3.9,3.9C84.7,172.1,82.8,173.9,80.8,173.9z M102.7,171.4c-0.4,0.8-0.8,1.6-1.6,2c-0.3,0.2-0.6-0.2-0.9-0.5
		c-6.2-4.5-12.3-8.9-18.5-13.4c-0.3-0.1-0.6-0.2-0.8-0.4c-0.6,0-0.9,0.4-1.3,0.6c-6,4.4-12.1,8.7-18.1,13.1
		c-0.4,0.3-0.8,0.9-1.3,0.6c-0.7-0.5-1.2-1.3-1.5-2.1c-0.1-0.4,0.4-0.6,0.7-0.8c5-3.6,10-7.2,15-10.8c1.9-1.3,3.7-2.7,5.6-4
		c0.6-0.4,1.1-0.5,1.7,0c6.7,4.9,13.5,9.8,20.2,14.7C102.3,170.7,103,170.9,102.7,171.4z M111.8,174.4c-0.5,0.4-1,0.5-1.6,0
		c-6.8-5-13.7-10-20.6-15c-0.8-0.6-1.1-1-0.3-1.8c0.2-0.2,0.3-0.4,0.4-0.6c0.4-0.7,0.8-0.8,1.5-0.3c3.6,2.7,7.3,5.3,11,8
		c2.6,1.9,5.2,3.7,7.8,5.7c0.7,0.5,1.2,0.5,1.9,0c6.1-4.4,12.2-8.8,18.3-13.3c0.9-0.7,1.4-0.6,1.9,0.4c0.3,0.4,0.7,0.7,0.9,1.2
		c-0.1,0.4-0.4,0.6-0.7,0.8c-5.3,3.9-10.6,7.7-16,11.6C114.8,172.2,113.3,173.3,111.8,174.4z M141,175.8c-2.1,0-3.9-1.8-3.9-3.9
		c0.1-2.2,1.9-3.8,4-3.8s3.9,1.9,3.8,3.9S143.1,175.7,141,175.8z M161.5,173.7c-0.3,0.3-0.7-0.2-1-0.4c-6.1-4.4-12.3-8.9-18.3-13.3
		c-0.9-0.6-1.4-0.7-2.4-0.1c-6,4.4-12,8.7-18,13.1c-0.4,0.3-0.8,0.9-1.3,0.6c-0.7-0.5-1.2-1.2-1.5-2c-0.2-0.4,0.4-0.6,0.7-0.8
		c4.4-3.2,8.9-6.5,13.3-9.7c2.3-1.7,4.7-3.4,7-5.1c0.7-0.6,1.3-0.6,2,0c6.8,5,13.6,9.9,20.4,14.8c0.3,0.2,0.7,0.3,0.7,0.9
		C162.6,172.4,162.2,173.2,161.5,173.7z M172,174.3c-0.5,0.4-1,0.5-1.6,0c-6.9-5-13.7-10-20.6-14.9c-0.7-0.5-0.8-0.9-0.2-1.6
		c0.2-0.2,0.4-0.5,0.5-0.7c0.4-0.7,0.9-0.8,1.6-0.3c6.2,4.5,12.4,9,18.6,13.5c0.7,0.5,1.2,0.5,1.8,0c6-4.4,12.1-8.8,18.1-13.1
		c1.3-0.9,1.3-0.9,2.3,0.4c0.3,0.4,0.5,0.7,0.7,0.9c0,0.6-0.4,0.7-0.7,0.9c-5.8,4.2-11.6,8.5-17.5,12.7
		C174,172.8,173,173.6,172,174.3z M201.3,175.7c-2.1,0-3.8-1.7-3.8-3.8c0-2.2,1.7-3.9,4-3.8c2,0,3.7,1.7,3.7,3.8
		C205.2,174.1,203.5,175.7,201.3,175.7z M221.9,173.6c-0.5,0.5-0.9-0.2-1.3-0.5c-6.1-4.4-12.3-8.9-18.4-13.3c-0.7-0.5-1.2-0.5-1.9,0
		c-6.1,4.5-12.2,8.9-18.4,13.3c-0.4,0.3-0.7,0.8-1.2,0.4c-0.6-0.6-1.2-1.2-1.4-2.1c-0.1-0.3,0.4-0.5,0.6-0.7
		c5.1-3.7,10.3-7.5,15.4-11.2c1.7-1.3,3.5-2.5,5.2-3.8c0.5-0.4,0.9-0.4,1.5,0c6.9,5,13.7,10,20.6,15c0.3,0.3,0.7,0.4,0.7,0.9
		C223,172.3,222.5,173.1,221.9,173.6z M230.4,174c-6.7-4.9-13.4-9.7-20.1-14.6c-0.9-0.6-1-1.1-0.3-1.9c0.5-0.2,0.6-0.9,1.3-1.1
		c0.3,0.2,0.6,0.3,0.8,0.5c6,4.3,12,8.7,17.9,13c1.7,1.2,1.3,1.2,3,0c6-4.4,12-8.7,18-13.1c0.6-0.5,1-0.4,1.4,0.2
		c1.2,1.7,1.3,1.7-0.4,2.9c-6.5,4.7-13,9.4-19.4,14.1C231.8,174.6,231.2,174.6,230.4,174z M262.2,175.8c-2.1,0-3.9-1.8-3.9-3.8
		c0-2.2,1.8-3.9,3.9-3.9c2.2,0,3.9,1.7,3.8,3.9C266,174,264.2,175.8,262.2,175.8z M283.8,172.4c-1.2,1.6-1.2,1.6-2.8,0.4
		c-6-4.4-12-8.7-18-13.1c-0.3-0.1-0.6-0.3-0.9-0.5c-0.3,0.2-0.5,0.3-0.8,0.5c-6.2,4.5-12.4,8.9-18.5,13.5c-0.9,0.6-1.3,0.5-1.8-0.3
		c-0.1-0.2-0.3-0.4-0.5-0.6c-0.6-0.6-0.4-1,0.3-1.5c2.9-2.1,5.8-4.2,8.7-6.3c3.9-2.8,7.8-5.7,11.7-8.5c0.5-0.4,0.9-0.6,1.6-0.2
		c6.9,5,13.8,10,20.7,15C284.2,171.3,284.3,171.7,283.8,172.4z M293.1,174.3c-0.6,0.5-1.1,0.5-1.8,0c-6.8-5-13.6-9.9-20.4-14.8
		c-0.3-0.2-1-0.5-0.7-1c0.4-0.8,0.8-1.6,1.6-2c0.3-0.2,0.7,0.3,0.9,0.5c6.1,4.4,12.2,8.8,18.3,13.2c0.9,0.6,1.4,0.6,2.3,0
		c5.9-4.4,11.9-8.7,17.9-13c0.4-0.3,0.9-1,1.4-0.6c0.7,0.6,1.1,1.4,1.5,2.1c-0.1,0.5-0.5,0.7-0.8,0.9c-5.1,3.7-10.2,7.4-15.3,11.1
		C296.4,171.9,294.7,173.1,293.1,174.3z M322.4,175.7c-2.1,0-3.9-1.9-3.8-3.9c0-2.1,1.8-3.8,3.9-3.7c2,0,3.8,1.8,3.8,3.8
		C326.3,174,324.5,175.8,322.4,175.7z M344.2,172.4c-1.2,1.7-1.2,1.7-2.9,0.5c-6-4.4-12-8.7-18-13.1c-0.6-0.4-1-0.4-1.6,0
		c-6.2,4.5-12.4,9-18.5,13.5c-0.8,0.6-1.3,0.5-1.8-0.3c-0.1-0.2-0.3-0.4-0.5-0.6c-0.6-0.7-0.4-1.1,0.3-1.6c3.8-2.7,7.5-5.4,11.3-8.2
		c3-2.2,6-4.4,9-6.6c0.2-0.3,0.5-0.5,1-0.6c0.2,0.1,0.5,0.3,0.8,0.5c5.9,4.3,11.8,8.6,17.7,12.9c1,0.7,1.9,1.4,2.9,2.1
		C344.5,171.3,344.6,171.7,344.2,172.4z M353.1,174.1c-0.3,0.3-0.5,0.5-0.7,0.5c-0.5,0-0.8-0.3-1.1-0.5c-6.8-4.9-13.5-9.8-20.3-14.7
		c-0.7-0.5-0.7-0.9-0.2-1.6c1.3-1.6,1.2-1.6,2.9-0.4c6,4.3,12,8.7,17.9,13c0.7,0.5,1.1,0.2,1.6-0.2c6.2-4.5,12.4-9,18.6-13.4
		c0.4-0.3,0.8-0.9,1.2-0.5c0.6,0.5,1.2,1.2,1.5,2c0.1,0.4-0.5,0.6-0.8,0.9c-5.8,4.2-11.5,8.4-17.3,12.5
		C355.3,172.5,354.2,173.3,353.1,174.1z M382.3,173.9c-2-0.1-3.8-1.9-3.8-3.9c0-2.1,1.9-3.9,3.9-3.9c2.1,0.1,4,1.9,3.9,4
		C386.3,172.2,384.4,174,382.3,173.9z M402.8,173.4c-0.3,0.2-0.6-0.2-0.9-0.4c-5-3.7-10.1-7.3-15.1-11c-1.2-0.9-2.4-1.7-3.6-2.6
		c-0.6-0.5-1-0.4-1.6,0.1c-5.4,4-10.9,7.9-16.3,11.8c-0.8,0.6-1.7,1.2-2.5,1.8c-0.6,0.4-0.9,0.4-1.3-0.2c-1.5-2.1-1.3-1.7,0.4-3
		c6.6-4.8,13.1-9.5,19.7-14.3c0.6-0.4,1-0.5,1.6-0.1c6.8,4.9,13.5,9.8,20.3,14.8c0.3,0.4,0.8,0.5,0.9,1.1
		C403.9,172.1,403.5,172.9,402.8,173.4z M413.5,173.9c-0.6,0.4-1,0.5-1.6,0c-6.9-4.7-13.6-9.7-20.3-14.6c-0.4-0.3-1.1-0.5-0.8-1.1
		c0.3-0.8,0.8-1.5,1.5-2c0.3-0.2,0.7,0.2,1,0.4c4.6,3.3,9.2,6.7,13.8,10c1.7,1.2,3.4,2.3,5.1,3.5c0.6,0.4,0.9,0.1,1.4-0.2
		c7-5.1,13.9-10.2,20.9-15.3c1.6-1.2,1.6-1.3,0-2.1c-2.7-1.4-5-3.4-7.4-5.2c-2.5-1.7-4.8-3.5-7.3-5.3c-0.7-0.5-0.8-0.9-0.2-1.5
		c0.2-0.2,0.3-0.3,0.4-0.5c0.6-0.9,1.2-0.9,2.1-0.2c5,3.7,10,7.3,15,11c0.8,0.6,1.7,0.8,2.5,1.5c0.2,0.6,0.7,0.9,0.4,1.5
		c0.3,0.7-0.3,0.9-0.7,1.2c-6.6,4.8-13.2,9.7-19.8,14.5C417.5,171,415.5,172.4,413.5,173.9z M424.1,172.8c-0.9,0.7-1.4,0.6-1.9-0.3
		c-0.1-0.2-0.2-0.4-0.4-0.5c-0.5-0.6-0.5-1,0.2-1.5c5.4-3.9,10.7-7.7,16-11.6c1.6-1.1,3.1-2.3,4.7-3.4c0.6-0.5,2.8,0.6,2.9,1.3
		c0,0.4-0.3,0.5-0.6,0.7c-2.7,2-5.3,4-8,5.9C432.7,166.5,428.4,169.6,424.1,172.8z M443.3,173.7c-2.1,0-3.9-1.8-3.9-3.9
		c0-2,1.8-3.8,3.8-3.8s3.9,1.8,3.9,3.9C447.2,171.9,445.4,173.7,443.3,173.7z M443.8,139c-2.1,0-3.9-1.7-3.9-3.8c0-2.2,1.9-4,4-4
		s3.8,1.8,3.8,4C447.7,137.2,446,139,443.8,139z"/>
</g>
</svg>
