<?xml version="1.0" encoding="utf-8"?>
<!-- Generator: Adobe Illustrator 27.3.1, SVG Export Plug-In . SVG Version: 6.00 Build 0)  -->
<svg version="1.1" id="Layer_1" xmlns="http://www.w3.org/2000/svg" xmlns:xlink="http://www.w3.org/1999/xlink" x="0px" y="0px"
	 viewBox="0 0 64 64" style="enable-background:new 0 0 64 64;" xml:space="preserve">
<style type="text/css">
	.st0{fill:#FFFFFF;stroke:#000000;stroke-width:3;stroke-miterlimit:10;}
	.st1{fill:#FFFFFF;}
</style>
<path class="st0" d="M11.5,12.9"/>
<path class="st1" d="M53.7,20.1H11.2c-1,0-1.8-0.8-1.8-1.8c0-1,0.8-1.8,1.8-1.8h42.6C56,16.5,56,20.2,53.7,20.1z"/>
<path class="st1" d="M53.7,35.5H11.2c-1,0-1.8-0.8-1.8-1.8c0-1,0.8-1.8,1.8-1.8h42.6C56,32,56,35.6,53.7,35.5z"/>
<path class="st1" d="M53.7,51H11.2c-1,0-1.8-0.8-1.8-1.8c0-1,0.8-1.8,1.8-1.8h42.6C56,47.4,56,51,53.7,51z"/>
</svg>
