<?xml version="1.0" encoding="utf-8"?>
<!-- Generator: Adobe Illustrator 26.3.1, SVG Export Plug-In . SVG Version: 6.00 Build 0)  -->
<svg version="1.1" id="Layer_1" xmlns="http://www.w3.org/2000/svg" xmlns:xlink="http://www.w3.org/1999/xlink" x="0px" y="0px"
	 viewBox="0 0 64 64" style="enable-background:new 0 0 64 64;" xml:space="preserve">
<style type="text/css">
	.st0{fill:none;}
</style>
<g>
	<line class="st0" x1="18.1" y1="20.7" x2="45.9" y2="20.7"/>
	<path d="M45.9,22.3H18.1c-0.7,0-1.2-0.7-1.2-1.6c0-0.9,0.5-1.6,1.2-1.6h27.8c0.7,0,1.2,0.7,1.2,1.6C47.1,21.6,46.6,22.3,45.9,22.3z
		"/>
</g>
<g>
	<line class="st0" x1="18.1" y1="32" x2="45.9" y2="32"/>
	<path d="M45.9,33.6H18.1c-0.7,0-1.2-0.7-1.2-1.6c0-0.9,0.5-1.6,1.2-1.6h27.8c0.7,0,1.2,0.7,1.2,1.6C47.1,32.9,46.6,33.6,45.9,33.6z
		"/>
</g>
<g>
	<line class="st0" x1="18.1" y1="43.3" x2="45.9" y2="43.3"/>
	<path d="M45.9,44.9H18.1c-0.7,0-1.2-0.7-1.2-1.6c0-0.9,0.5-1.6,1.2-1.6h27.8c0.7,0,1.2,0.7,1.2,1.6C47.1,44.1,46.6,44.9,45.9,44.9z
		"/>
</g>
</svg>
